<svg xmlns="http://www.w3.org/2000/svg" width="173" height="172" fill="none"><path fill="#F5873E" d="M77.4306 62.6044c-1.47-32.9727 40.6104-48.3926 65.5134-32.6556 14.872 9.396 19.368 26.5165 15.131 43.0028-2.133 8.2432-6.11 16.0252-11.327 22.7408-5.707 7.3206-13.287 11.5866-19.945 17.8126-2.824 2.622-5.793 5.62-9.194 7.061-8.157 3.545-13.143-7.263-16.832-11.731-5.3325-6.081-10.7799-13.2003-15.3915-21.5011-4.9862-7.7532-7.5802-15.9964-7.9549-24.7295Z"/><path fill="#595550" d="M131.651 63.0708c-.519 0-1.211.2306-1.816.7206-.404.3458-.836.9223-1.009 1.4987-.173.6629.058 1.0953.288 1.4123.317.4035.663.807 1.038 1.1241.375.2882.778.5476 1.354.3458 1.586-.5476 2.105-3.1416 1.615-4.1215-.289-.6341-.808-.98-1.47-.98ZM103.084 62.1175c.259-.4323.778-.8935 1.441-1.124.461-.1441 1.066-.173 1.556.0288.548.2306.721.6917.807 1.0664.116.5188.202 1.0376.231 1.5276.029.49-.029.9799-.461 1.3546-1.182 1.0088-3.257-.0576-3.661-1.0376-.288-.6341-.259-1.2681.087-1.8158Z"/><path fill="#FFFDFA" d="M119.538 75.3424c1.066.3001 2.105.6303 3.25.1801 2.745-1.0805.986-4.9523-.452-6.8132-2.452-2.7313-5.569-3.0914-8.286-.9304-1.492 1.2606-3.171 3.0014-3.171 5.0723 0 .5103.16 1.0805.48 1.4707.826.9905 2.344.7804 3.304.7504 1.625-.1501 3.33-.2402 4.875.2701Z"/><path fill="#4A8A51" d="M150.091 20.2484c-2.192-3.003-6.111-3.5588-9.427-2.8045 1.03-5.1162-1.764-10.97391-7.498-12.04635-3.826-.66702-7.073 1.82196-8.83 4.78195-.321.5469-.61 1.1279-.864 1.7343-2.791-2.31733-6.652-3.28259-10.26-1.593-3.466 1.6754-4.565 5.5802-4.187 9.0032.499 4.3416 3.155 9.1966 7.436 10.5234 3.461 1.2351 19.34 6.7694 23.784 5.8935 1.444.0386 2.845-.1961 4.143-.659 5.941-1.9614 9.625-9.3176 5.703-14.8335Z"/><path fill="#BE630E" fill-rule="evenodd" d="M78.9335 48.0341c-.4198-.5896-1.2377-.73-1.8302-.3127-.5945.4186-.7371 1.2398-.3185 1.8343l1.0764-.7579c-1.0764.7579-1.076.7585-1.0755.7591l.0009.0014.0022.003.0053.0074.0145.02c.0115.0157.0264.0359.045.0604.0372.0489.0888.1149.1553.1958.133.1616.3258.3826.5821.6447.5124.524 1.28 1.2135 2.3324 1.9197 2.1119 1.417 5.3467 2.8848 9.9137 3.2349.7249.0556 1.3576-.487 1.4132-1.2119.0556-.725-.487-1.3577-1.2119-1.4133-4.0798-.3127-6.8833-1.6119-8.6479-2.7961-.8859-.5944-1.5162-1.1641-1.9171-1.5741-.2003-.2049-.3431-.3696-.4315-.477-.0441-.0536-.0746-.0929-.0919-.1157l-.0165-.022Zm0 0ZM75.6761 65.0376c.5507-.4747 1.382-.4131 1.8567.1376l-.9971.8595c.9971-.8595.9975-.8591.9971-.8595l-.0015-.0017-.001-.0013-.001-.0011c-.0002-.0002.0002.0003.002.0024l.0239.0263c.0237.0257.0634.068.1189.1243.1111.1127.2848.2808.5194.4836.47.4065 1.1786.9479 2.1106 1.4639 1.8568 1.0279 4.5984 1.9558 8.1478 1.5204.7217-.0885 1.3785.4247 1.467 1.1464.0885.7216-.4247 1.3784-1.1464 1.4669-4.2037.5157-7.5004-.5884-9.7436-1.8302-1.1179-.6189-1.9748-1.2718-2.5577-1.7759-.2918-.2525-.5164-.4688-.6721-.6266-.0778-.079-.1386-.1435-.182-.1908-.0218-.0236-.0392-.043-.0523-.0577l-.0163-.0185-.0058-.0066-.0022-.0026-.001-.0011c-.0005-.0005-.0009-.001.9962-.8606l-.9971.8596c-.4747-.5507-.4131-1.382.1375-1.8567ZM160.094 71.6931c.575.4444.682 1.2711.237 1.8466l-1.042-.8047c1.042.8047 1.042.8053 1.041.806l-.004.005-.007.0095-.023.0284c-.018.0231-.043.0542-.076.0927-.064.077-.156.1838-.275.3153-.238.2629-.588.6252-1.05 1.0457-.922.8404-2.298 1.9183-4.136 2.8987-3.696 1.971-9.214 3.5202-16.56 2.024-.713-.1451-1.173-.8403-1.028-1.5527.146-.7125.841-1.1724 1.553-1.0273 6.69 1.3625 11.587-.0558 14.796-1.7672 1.614-.8607 2.813-1.8027 3.602-2.5219.395-.3592.686-.6616.873-.8685.094-.1034.162-.1827.204-.2331.021-.0252.036-.0431.044-.0532l.006-.008c.445-.5745 1.27-.6794 1.845-.2353ZM150.117 89.6336c.505-.5204 1.336-.5345 1.859-.0307.523.5048.538 1.3382.033 1.8615l-.907-.8754c.907.8754.907.8759.906.8765l-.004.0045-.008.0083-.025.0246c-.02.02-.047.0468-.081.0799-.069.0663-.167.1579-.293.2703-.254.2248-.622.5334-1.105.8893-.965.7115-2.389 1.6153-4.259 2.4168-3.753 1.6088-9.267 2.7885-16.389 1.2222-.71-.1561-1.159-.8584-1.003-1.5685.156-.71.859-1.1591 1.569-1.0029 6.532 1.4366 11.486.3437 14.786-1.0708 1.657-.7102 2.906-1.5058 3.734-2.1158.413-.3048.72-.5624.918-.7387.099-.0881.171-.1557.216-.1985.022-.0215.037-.0367.046-.0451l.007-.0075Z" clip-rule="evenodd"/><path fill="#F8A1A6" d="M126.497 33.6691c-1.343.1975-2.804.0131-4.147-.4344-3.752-1.2112-6.253-5.3316-10.084-3.1595-3.015 1.1716-5.358 3.278-8.517 3.7519-3.015.4344-6.1086.4607-8.1096-.6583-3.4622-2.4485-4.2521-7.0429-4.3442-11.5715.0395-3.6465-.6846-7.2799-1.4086-10.9001-.3028-2.89622-.5134-6.16099 3.0278-7.72755.7372-.34228 1.4876-.47392 2.2248-.44759 1.1453.03949 2.4749.2238 3.6465.94784 1.7373.82936 2.2383 2.61972 2.1193 4.43641-.052 1.98782-.487 4.17309-.526 6.27939-.4348 2.9094-.5006 5.8846-.014 9.2941 0 .0132 0 .0264.014.0395.368 1.8036 2.619 2.6197 4.528 1.5271 1.409-.9479 2.738-1.8298 3.989-2.4749 3.107-1.3954 5.99-.9742 8.557.3028 1.422.7108 5.819 5.7002 7.701 5.3711 1.172-.2107 2.567-.8426 3.884-.316 2.632 1.0531 1.263 4.0283-.145 4.9103-.698.4345-1.527.7109-2.396.8294Z"/><path fill="#F8C5BA" d="M95.7707 15.2126c1.3955-.2106 2.5671-.4871 3.5676-.6451.3554-.0658.7237-.1053 1.0927.0395.658.2633.632 1.0137.75 1.6061.066.8425.198 1.6719.343 2.5671.079.6187.223 1.2506.355 1.8825.092.4871.421 1.0926-.132 1.4217-.487.2896-1.369.2633-1.948.2765-.9215.0132-1.843-.0263-2.7382-.079-1.0794-.0263-2.1852-.079-3.2779-.1448-.8294-.0527-2.0932-.0395-2.7909-.3159-.2633-.1054-.4212-.2765-.5397-.4608-.6187-1.3823-.4476-3.5939-.5661-5.121-.1053-.961 1.119-.8162 2.3301-.7898 1.198.0263 2.396-.079 3.5544-.237Z"/><path fill="#595550" d="M96.9956 7.80108c-.1448.02633-.316.11847-.4608.27644-.0921.10532-.1843.28962-.2106.44759-.0132.1843.0658.2896.1448.35542.1053.09216.2238.18431.3423.25013.1053.06582.2369.10534.3818.02636.4081-.2238.4212-.94783.2501-1.18479-.1053-.14481-.2633-.21064-.4476-.17115ZM92.4143 8.23557c.0526-.13165.1711-.27645.3422-.3686.1185-.06583.2896-.1053.4213-.06581.158.03949.2238.14481.2765.25013.0526.13164.1053.26328.1316.40809.0263.13165.0395.26326-.0658.38174-.2765.32911-.8952.13166-1.0532-.1053-.1053-.15797-.1185-.34228-.0526-.50025Z"/><path fill="red" fill-rule="evenodd" d="M66.5184 23.7934c-.4443.6402-.2853 1.519.355 1.9629 1.0314.7148 3.8338 3.3542 5.7038 7.6018.3139.713 1.1466 1.0364 1.86.7224.7133-.314 1.0372-1.1465.7233-1.8595-2.085-4.7358-5.2303-7.7796-6.6783-8.7833-.6404-.4438-1.5196-.2846-1.9638.3557Z" clip-rule="evenodd"/><path fill="red" d="M74.5999 39.3113c.4211 1.09 1.6465 1.632 2.7371 1.2107 1.0905-.4214 1.6332-1.6465 1.2121-2.7365-.4211-1.0899-1.6465-1.6319-2.7371-1.2106-1.0905.4214-1.6332 1.6465-1.2121 2.7364Z"/><path fill="#F1E2CC" d="M156.762 105.641c-3.597 1.146-11.362-2.371-15.137-2.355-3.386.015-6.723 1.13-10.093.795-3.532-.35-7.489 5.587-10.973 4.887-4.52-.907-7.263-5.046-11.848-5.523-4.73-.494-9.8309 2.754-14.4805 3.645-5.0709.987-11.2875-6.225-16.4556-6.209-4.8764.016-7.0363-.11-11.8479-.9059-7.015-1.1619-9.2151.9059-19.053 4.1069-4.3904-.16-8.2948-2.643-12.426-4.1069-4.196-1.4802-8.7484-1.4643-12.021 1.7349-3.2888 3.215-8.0759-.08-12.95232 0-3.83959.064-6.21324 5.634-8.27075 8.818-2.25191 3.47.09294 14.197 3.17109 16.999 3.07816 2.801 6.99878 4.981 8.78088 8.706 1.5552 3.263 1.3122 7.401 3.8234 10.027 1.5228 1.592 3.7423 2.276 5.7188 3.247 8.7647 4.33 10.1726 5.931 18.5485 10.961 3.6937 2.228 7.987 3.278 12.1992 4.281l18.7605 4.536c4.2122 1.019 8.473 2.038 12.8148 2.149 13.2361.35 7.7795-3.258 20.9019-4.881 2.236-.271 4.553-.382 6.578-1.337 1.96-.923 7.239 1.241 9.005 0 2.171-1.528 4.731-2.467 6.885-4.043 2.43-1.783 8.27-.225 9.873-2.74 4.31-6.764 10.427-7.564 15.433-13.851 1.75-2.197 3.899-5.722 7.807-12.598 3.175-5.587 8.018-6.582 8.018-15.139-.065-1.146 5.406-10.172 2.115-11.204-6.583-5.55-5.551-2.992-14.875 0Z"/><path fill="#D5BB96" d="M163.248 101.731c-4.132-.836-8.427.234-12.619-.206-4.325-.454-8.575-2.4914-12.826-1.6706-4.636.9086-8.339 5.0716-13.049 5.1006-4.458.015-8.101-3.708-12.5-4.441-6.413-1.07-12.3526 4.354-18.8399 4.104-4.0137-.146-7.5832-2.433-11.36-3.781-3.0066-1.0705-6.2058-1.2757-8.8866.102 1.1404 1.056 2.429 1.979 3.8212 2.683 1.6737.864 3.4806 1.451 5.1691 2.301 2.666 1.348 5.0357 3.342 7.9239 4.09 6.9167 1.788 14.3813-4.119 21.0613-1.598 2.37.835 4.206 2.536 6.428 3.298 3.895 1.334 8.576.015 12.841-1.73 4.266-1.744 8.546-3.576 13.123-3.796 5.021-.249 10.308 1.407 14.988.337 1.674-.381 3.14-1.173 4.651-1.994 1.155-.63 2.355-1.216 3.57-1.759-1.171-.41-2.311-.806-3.496-1.04Z"/><path fill="#E7D4B8" d="M18.7497 115.6c.3938 1.092.1969 2.461-.5709 3.268-.187.197-.4134.364-.6694.482-.6004.276-1.2895.276-1.949.266-3.3075-.03-4.5774-.837-2.2542-3.829 1.5946-2.058 4.2721-3.475 5.4435-.187ZM128.939 149.356c.059.364.099.748-.059 1.083-.118.256-.335.453-.551.63-4.085 3.278-11.015.807-9.312-4.962.561-1.909 1.988-3.277 3.996-3.474 3.761-.384 5.434 3.612 5.926 6.723ZM22.765 137.411c1.89-1.004 3.2878-1.979 5.1483-2.245 1.7226-.265 4.1343.128 6.1917 1.743 1.5356.728 2.6578 1.968 3.9178 2.687 5.1482 1.368 13.9288-1.89 20.7407-4.459 1.7916-.335 3.5142-.62 5.3944-.177 5.0301 1.23 10.0406 4.419 14.9821 4.656 5.5814.295 11.2022-3.436 15.9173-7.541.7383 2.235-.6595 4.745-2.0278 7.226-3.4256 7.146-9.8929 10.099-16.882 7.786-4.3411-1.476-8.4361-4.331-12.787-5.345-4.6758-1.093-8.564 1.703-12.9445 3.229-4.4297 2.618-9.2334 4.646-12.9642 3.927-1.9687-.384-3.8489-1.663-6.2114-2.795-4.0949-2.166-14.4309 2.303-18.7326.512-2.4806-2.904 7.6683-7.688 10.2572-9.204ZM142.058 120.8c-.777.315-1.634.394-2.47.443-4.607.266-9.381-.256-14.48-1.014-1.92.355-3.908.955-5.749 1.851-1.841.925-3.426 1.959-3.633 2.51-.216.551.985.443 2.58.089 1.594-.345 3.474-.66 5.276-.532 4.528 2.412 9.164 3.278 13.712 2.717 3.918-.62 7.934-1.27 11.458-3.18 2.835-1.279 5.05-1.732 8.879-.748 2.117.591 8.663 3.554 10.188 2.973 2.343-.886.276-1.969-1.683-3.386-2.707-1.949-7.55-5.434-11.281-6.625-6.3-1.91-8.121 3.18-12.797 4.902Z"/><path fill="red" fill-rule="evenodd" d="M43.8686 57.8096c.4939.3347.6228 1.006.288 1.4996-.5392.795-1.8122 3.4528-1.9756 7.0018-.0275.5957-.5329 1.0564-1.1289 1.0289-.596-.0274-1.0569-.5325-1.0295-1.1282.1823-3.9569 1.5885-6.998 2.3456-8.1142.3348-.4936 1.0066-.6225 1.5004-.2879Z" clip-rule="evenodd"/><path fill="red" d="M42.3791 71.1198c0 .8945-.7255 1.6196-1.6205 1.6196-.8949 0-1.6204-.7251-1.6204-1.6196 0-.8944.7255-1.6196 1.6204-1.6196.895 0 1.6205.7252 1.6205 1.6196Z"/><path fill="#B78B58" d="M24.8448 63.249c3.2366 1.0103 6.0768 2.8992 8.5647 5.4469 2.2458 2.3061 4.2713 5.4249 5.7024 8.983 3.2586 8.1923 2.6641 17.1313.7486 26.2461-.2862 1.23-.1101 2.504-.1541 3.404.0661.901-1.1669 1.274-2.3558.549-1.1009-.746-1.4972-2.152-2.3999-2.745-1.2329-.769-4.4915-.242-6.3189.351-1.0348 1.23-1.5412 3.339-3.0604 3.888-1.2109.307-1.6293-.505-1.7393-1.362-.0441-2.328-.5505-4.327-1.9155-6.15-4.5135-4.1945-7.0675-8.4993-8.3225-13.6827-.9027-3.7337-.6605-7.5114-.4624-11.2891.1321-2.6136.4184-5.2053 1.0569-7.753.4843-1.9108 1.1228-3.8436 1.9595-5.6226.1321-.3075.3082-.615.5724-.8346.9688-.7688 2.7742-.3295 3.875-.2416 1.4972.1317 2.9063.3953 4.2493.8126Z"/><path fill="#B78B58" d="M40.7588 93.2515c.5724-.2636 1.1889-.1318 1.7173.1318.8367.3953 3.0604 1.779 2.4659-.5711-.4623-2.3501-4.1392-3.4702-3.6548-7.1161M20.5292 99.4004c-1.5412.3295-1.3871 2.1746-2.6641 2.8116-.1981.088-.4843.088-.6605-.044-.1101-.088-.1761-.22-.2422-.33-.5284-1.142-.7045-2.3717-.5064-3.5357.1762-1.0982.8147-2.2183.5064-3.3824M12.1402 60.4594c-.0661-.9884.1981-2.0206.8807-2.7454.4183-.4393.9687-.7468 1.4091-1.1421.2642-.2196.5064-.4832.8146-.7028 1.0128-.6809 2.3558-.3734 3.5448-.022.6605.1977 1.365.4173 1.7834.9664 1.5632 2.0645 1.7613 7.16-1.233 7.9946-1.321.3734-2.9503.1977-4.2493-.0219-2.1137-.3295-2.8182-2.2842-2.9503-4.3268Z"/><path fill="#D5BB96" fill-rule="evenodd" d="M17.1334 63.7506c.5966.0094 1.0726.5003 1.0633 1.0965l-.0001.0042c-.0439 2.8014-.0881 5.6256-.2894 8.1473l-.0006.0077h-.0001c-.7532 8.652.9525 16.6593 6.0025 23.1114.3293.4131.6708.8177 1.0236 1.2357l.0047.0056c.3492.4136.7097.8407 1.0605 1.2809l.0029.0037c1.1789 1.4924 2.2465 3.0784 3.179 4.7574.2896.521.1014 1.178-.4202 1.468-.5217.289-1.1793.101-1.4689-.42-.8725-1.571-1.874-3.06-2.9842-4.4655-.3298-.4137-.6717-.8189-1.0251-1.2376l-.0047-.0055c-.3492-.4137-.7097-.8407-1.0605-1.281l-.0058-.0072h.0001c-5.4712-6.9878-7.2436-15.5818-6.4567-24.6291.1946-2.4398.2385-5.1913.2826-8.0098.0094-.5962.5006-1.072 1.0971-1.0627ZM20.2166 62.5827c.2833-.5248.9386-.7208 1.4637-.4377 8.987 4.8447 16.8528 14.9495 18.0864 25.9561v.0002c.5769 5.1563-.7572 11.1871-2.674 15.7987-.2289.551-.8611.812-1.4121.583-.551-.229-.8121-.861-.5832-1.411 1.8261-4.3937 3.046-10.0473 2.5221-14.7305-1.1443-10.21-8.5143-19.7403-16.9649-24.2959-.5251-.2831-.7212-.938-.438-1.4629Z" clip-rule="evenodd"/><path fill="#D5BB96" fill-rule="evenodd" d="M19.1451 63.0546c.5687-.1805 1.1761.1338 1.3567.7022 1.1845 3.7266 2.8397 7.3742 4.5457 11.1339.3205.7063.6428 1.4165.9641 2.132 2.0175 4.4926 3.9801 9.1601 5.0626 14.1547l.0001.0005c.445 2.058.8664 4.7181 1.2633 7.2235.2517 1.5883.4935 3.1146.7252 4.3856.1069.587-.2823 1.149-.8692 1.256-.587.107-1.1495-.282-1.2565-.869-.2523-1.384-.5011-2.959-.7547-4.5645-.3853-2.4391-.782-4.9498-1.2198-6.9749-1.0311-4.7571-2.9106-9.2483-4.9222-13.7277-.3135-.6981-.6307-1.3969-.9482-2.0964-1.7056-3.7574-3.4228-7.5403-4.6496-11.3999-.1806-.5684.1339-1.1754.7025-1.356Z" clip-rule="evenodd"/><path fill="#614925" d="M22.4798 84.4255c.2421-.0439.5722 0 .9022.1757.2201.1098.4621.3514.5942.593.132.2855.066.5052-.022.6809-.1101.2196-.2421.4173-.3741.615-.132.1757-.3081.3074-.5942.2855-.7701-.1098-1.2322-1.2739-1.1002-1.7571.088-.3294.3081-.5271.5941-.593ZM34.3024 81.7895c-.154-.1757-.4401-.3514-.7702-.3953-.22-.022-.5061 0-.7041.1537-.2421.1538-.2641.3734-.2861.5711 0 .2416 0 .4832.022.7248.044.2196.11.4392.3301.571.6381.3734 1.4963-.3075 1.6063-.7907.0881-.3294 0-.615-.198-.8346Z"/><path fill="#FAEDE1" d="M28.1537 88.6404c-.5064.2416-.9907.4832-1.6072.3954-1.4752-.2197-.9027-2.1085-.3523-3.0529.9908-1.4277 2.51-1.8889 4.0512-1.1861.8586.4173 1.8274 1.0323 2.0035 1.9548.0441.2196.022.4832-.1101.6808-.3302.5052-1.1008.5711-1.5852.637-.8146.0878-1.6733.1976-2.3999.571Z"/></svg>