<svg width="173" height="172" viewBox="0 0 173 172" fill="none" xmlns="http://www.w3.org/2000/svg">
<path d="M77.4306 62.6044C75.9606 29.6317 118.041 14.2118 142.944 29.9488C157.816 39.3448 162.312 56.4653 158.075 72.9516C155.942 81.1948 151.965 88.9768 146.748 95.6924C141.041 103.013 133.461 107.279 126.803 113.505C123.979 116.127 121.01 119.125 117.609 120.566C109.452 124.111 104.466 113.303 100.777 108.835C95.4445 102.754 89.9971 95.6347 85.3855 87.3339C80.3993 79.5807 77.8053 71.3375 77.4306 62.6044Z" fill="#F5873E"/>
<path d="M131.651 63.0708C131.132 63.0708 130.44 63.3014 129.835 63.7914C129.431 64.1372 128.999 64.7137 128.826 65.2901C128.653 65.953 128.884 66.3854 129.114 66.7024C129.431 67.1059 129.777 67.5094 130.152 67.8265C130.527 68.1147 130.93 68.3741 131.506 68.1723C133.092 67.6247 133.611 65.0307 133.121 64.0508C132.832 63.4167 132.313 63.0708 131.651 63.0708Z" fill="#595550"/>
<path d="M103.084 62.1175C103.343 61.6852 103.862 61.224 104.525 60.9935C104.986 60.8494 105.591 60.8205 106.081 61.0223C106.629 61.2529 106.802 61.714 106.888 62.0887C107.004 62.6075 107.09 63.1263 107.119 63.6163C107.148 64.1063 107.09 64.5962 106.658 64.9709C105.476 65.9797 103.401 64.9133 102.997 63.9333C102.709 63.2992 102.738 62.6652 103.084 62.1175Z" fill="#595550"/>
<path d="M119.538 75.3424C120.604 75.6425 121.643 75.9727 122.788 75.5225C125.533 74.442 123.774 70.5702 122.336 68.7093C119.884 65.978 116.767 65.6179 114.05 67.7789C112.558 69.0395 110.879 70.7803 110.879 72.8512C110.879 73.3615 111.039 73.9317 111.359 74.3219C112.185 75.3124 113.703 75.1023 114.663 75.0723C116.288 74.9222 117.993 74.8321 119.538 75.3424Z" fill="#FFFDFA"/>
<path d="M150.091 20.2484C147.899 17.2454 143.98 16.6896 140.664 17.4439C141.694 12.3277 138.9 6.46999 133.166 5.39755C129.34 4.73053 126.093 7.21951 124.336 10.1795C124.015 10.7264 123.726 11.3074 123.472 11.9138C120.681 9.59647 116.82 8.63121 113.212 10.3208C109.746 11.9962 108.647 15.901 109.025 19.324C109.524 23.6656 112.18 28.5206 116.461 29.8474C119.922 31.0825 135.801 36.6168 140.245 35.7409C141.689 35.7795 143.09 35.5448 144.388 35.0819C150.329 33.1205 154.013 25.7643 150.091 20.2484Z" fill="#4A8A51"/>
<path fill-rule="evenodd" clip-rule="evenodd" d="M78.9335 48.0341C78.5137 47.4445 77.6958 47.3041 77.1033 47.7214C76.5088 48.14 76.3662 48.9612 76.7848 49.5557L77.8612 48.7978C76.7848 49.5557 76.7852 49.5563 76.7857 49.5569L76.7866 49.5583L76.7888 49.5613L76.7941 49.5687L76.8086 49.5887C76.8201 49.6044 76.835 49.6246 76.8536 49.6491C76.8908 49.698 76.9424 49.764 77.0089 49.8449C77.1419 50.0065 77.3347 50.2275 77.591 50.4896C78.1034 51.0136 78.871 51.7031 79.9234 52.4093C82.0353 53.8263 85.2701 55.2941 89.8371 55.6442C90.562 55.6998 91.1947 55.1572 91.2503 54.4323C91.3059 53.7073 90.7633 53.0746 90.0384 53.019C85.9586 52.7063 83.1551 51.4071 81.3905 50.2229C80.5046 49.6285 79.8743 49.0588 79.4734 48.6488C79.2731 48.4439 79.1303 48.2792 79.0419 48.1718C78.9978 48.1182 78.9673 48.0789 78.95 48.0561L78.9335 48.0341ZM78.9335 48.0341C78.9335 48.0341 78.9335 48.0341 78.9335 48.0341Z" fill="#BE630E"/>
<path fill-rule="evenodd" clip-rule="evenodd" d="M75.6761 65.0376C76.2268 64.5629 77.0581 64.6245 77.5328 65.1752L76.5357 66.0347C77.5328 65.1752 77.5332 65.1756 77.5328 65.1752L77.5313 65.1735L77.5303 65.1722L77.5293 65.1711C77.5291 65.1709 77.5295 65.1714 77.5313 65.1735L77.5552 65.1998C77.5789 65.2255 77.6186 65.2678 77.6741 65.3241C77.7852 65.4368 77.9589 65.6049 78.1935 65.8077C78.6635 66.2142 79.3721 66.7556 80.3041 67.2716C82.1609 68.2995 84.9025 69.2274 88.4519 68.792C89.1736 68.7035 89.8304 69.2167 89.9189 69.9384C90.0074 70.66 89.4942 71.3168 88.7725 71.4053C84.5688 71.921 81.2721 70.8169 79.0289 69.5751C77.911 68.9562 77.0541 68.3033 76.4712 67.7992C76.1794 67.5467 75.9548 67.3304 75.7991 67.1726C75.7213 67.0936 75.6605 67.0291 75.6171 66.9818C75.5953 66.9582 75.5779 66.9388 75.5648 66.9241L75.5485 66.9056L75.5427 66.899L75.5405 66.8964L75.5395 66.8953C75.539 66.8948 75.5386 66.8943 76.5357 66.0347L75.5386 66.8943C75.0639 66.3436 75.1255 65.5123 75.6761 65.0376Z" fill="#BE630E"/>
<path fill-rule="evenodd" clip-rule="evenodd" d="M160.094 71.6931C160.669 72.1375 160.776 72.9642 160.331 73.5397L159.289 72.735C160.331 73.5397 160.331 73.5403 160.33 73.541L160.326 73.546L160.319 73.5555L160.296 73.5839C160.278 73.607 160.253 73.6381 160.22 73.6766C160.156 73.7536 160.064 73.8604 159.945 73.9919C159.707 74.2548 159.357 74.6171 158.895 75.0376C157.973 75.878 156.597 76.9559 154.759 77.9363C151.063 79.9073 145.545 81.4565 138.199 79.9603C137.486 79.8152 137.026 79.12 137.171 78.4076C137.317 77.6951 138.012 77.2352 138.724 77.3803C145.414 78.7428 150.311 77.3245 153.52 75.6131C155.134 74.7524 156.333 73.8104 157.122 73.0912C157.517 72.732 157.808 72.4296 157.995 72.2227C158.089 72.1193 158.157 72.04 158.199 71.9896C158.22 71.9644 158.235 71.9465 158.243 71.9364L158.249 71.9284C158.694 71.3539 159.519 71.249 160.094 71.6931Z" fill="#BE630E"/>
<path fill-rule="evenodd" clip-rule="evenodd" d="M150.117 89.6336C150.622 89.1132 151.453 89.0991 151.976 89.6029C152.499 90.1077 152.514 90.9411 152.009 91.4644L151.102 90.589C152.009 91.4644 152.009 91.4649 152.008 91.4655L152.004 91.47L151.996 91.4783L151.971 91.5029C151.951 91.5229 151.924 91.5497 151.89 91.5828C151.821 91.6491 151.723 91.7407 151.597 91.8531C151.343 92.0779 150.975 92.3865 150.492 92.7424C149.527 93.4539 148.103 94.3577 146.233 95.1592C142.48 96.768 136.966 97.9477 129.844 96.3814C129.134 96.2253 128.685 95.523 128.841 94.8129C128.997 94.1029 129.7 93.6538 130.41 93.81C136.942 95.2466 141.896 94.1537 145.196 92.7392C146.853 92.029 148.102 91.2334 148.93 90.6234C149.343 90.3186 149.65 90.061 149.848 89.8847C149.947 89.7966 150.019 89.729 150.064 89.6862C150.086 89.6647 150.101 89.6495 150.11 89.6411L150.117 89.6336Z" fill="#BE630E"/>
<path d="M126.497 33.6691C125.154 33.8666 123.693 33.6822 122.35 33.2347C118.598 32.0235 116.097 27.9031 112.266 30.0752C109.251 31.2468 106.908 33.3532 103.749 33.8271C100.734 34.2615 97.6404 34.2878 95.6394 33.1688C92.1772 30.7203 91.3873 26.1259 91.2952 21.5973C91.3347 17.9508 90.6106 14.3174 89.8866 10.6972C89.5838 7.80098 89.3732 4.53621 92.9144 2.96965C93.6516 2.62737 94.402 2.49573 95.1392 2.52206C96.2845 2.56155 97.6141 2.74586 98.7857 3.4699C100.523 4.29926 101.024 6.08962 100.905 7.90631C100.853 9.89413 100.418 12.0794 100.379 14.1857C99.9442 17.0951 99.8784 20.0703 100.365 23.4798C100.365 23.493 100.365 23.5062 100.379 23.5193C100.747 25.3229 102.998 26.139 104.907 25.0464C106.316 24.0985 107.645 23.2166 108.896 22.5715C112.003 21.1761 114.886 21.5973 117.453 22.8743C118.875 23.5851 123.272 28.5745 125.154 28.2454C126.326 28.0347 127.721 27.4028 129.038 27.9294C131.67 28.9825 130.301 31.9577 128.893 32.8397C128.195 33.2742 127.366 33.5506 126.497 33.6691Z" fill="#F8A1A6"/>
<path d="M95.7707 15.2126C97.1662 15.002 98.3378 14.7255 99.3383 14.5675C99.6937 14.5017 100.062 14.4622 100.431 14.607C101.089 14.8703 101.063 15.6207 101.181 16.2131C101.247 17.0556 101.379 17.885 101.524 18.7802C101.603 19.3989 101.747 20.0308 101.879 20.6627C101.971 21.1498 102.3 21.7553 101.747 22.0844C101.26 22.374 100.378 22.3477 99.799 22.3609C98.8775 22.3741 97.956 22.3346 97.0608 22.2819C95.9814 22.2556 94.8756 22.2029 93.7829 22.1371C92.9535 22.0844 91.6897 22.0976 90.992 21.8212C90.7287 21.7158 90.5708 21.5447 90.4523 21.3604C89.8336 19.9781 90.0047 17.7665 89.8862 16.2394C89.7809 15.2784 91.0052 15.4232 92.2163 15.4496C93.4143 15.4759 94.6123 15.3706 95.7707 15.2126Z" fill="#F8C5BA"/>
<path d="M96.9956 7.80108C96.8508 7.82741 96.6796 7.91955 96.5348 8.07752C96.4427 8.18284 96.3505 8.36714 96.3242 8.52511C96.311 8.70941 96.39 8.81471 96.469 8.88053C96.5743 8.97269 96.6928 9.06484 96.8113 9.13066C96.9166 9.19648 97.0482 9.236 97.1931 9.15702C97.6012 8.93322 97.6143 8.20919 97.4432 7.97223C97.3379 7.82742 97.1799 7.76159 96.9956 7.80108Z" fill="#595550"/>
<path d="M92.4143 8.23557C92.4669 8.10392 92.5854 7.95912 92.7565 7.86697C92.875 7.80114 93.0461 7.76167 93.1778 7.80116C93.3358 7.84065 93.4016 7.94597 93.4543 8.05129C93.5069 8.18293 93.5596 8.31457 93.5859 8.45938C93.6122 8.59103 93.6254 8.72264 93.5201 8.84112C93.2436 9.17023 92.6249 8.97278 92.4669 8.73582C92.3616 8.57785 92.3484 8.39354 92.4143 8.23557Z" fill="#595550"/>
<path fill-rule="evenodd" clip-rule="evenodd" d="M66.5184 23.7934C66.0741 24.4336 66.2331 25.3124 66.8734 25.7563C67.9048 26.4711 70.7072 29.1105 72.5772 33.3581C72.8911 34.0711 73.7238 34.3945 74.4372 34.0805C75.1505 33.7665 75.4744 32.934 75.1605 32.221C73.0755 27.4852 69.9302 24.4414 68.4822 23.4377C67.8418 22.9939 66.9626 23.1531 66.5184 23.7934Z" fill="#FF0000"/>
<path d="M74.5999 39.3113C75.021 40.4013 76.2464 40.9433 77.337 40.522C78.4275 40.1006 78.9702 38.8755 78.5491 37.7855C78.128 36.6956 76.9026 36.1536 75.812 36.5749C74.7215 36.9963 74.1788 38.2214 74.5999 39.3113Z" fill="#FF0000"/>
<path d="M156.762 105.641C153.165 106.787 145.4 103.27 141.625 103.286C138.239 103.301 134.902 104.416 131.532 104.081C128 103.731 124.043 109.668 120.559 108.968C116.039 108.061 113.296 103.922 108.711 103.445C103.981 102.951 98.8801 106.199 94.2305 107.09C89.1596 108.077 82.943 100.865 77.7749 100.881C72.8985 100.897 70.7386 100.771 65.927 99.9751C58.912 98.8132 56.7119 100.881 46.874 104.082C42.4836 103.922 38.5792 101.439 34.448 99.9751C30.252 98.4949 25.6996 98.5108 22.427 101.71C19.1382 104.925 14.3511 101.63 9.47468 101.71C5.63509 101.774 3.26144 107.344 1.20393 110.528C-1.04798 113.998 1.29687 124.725 4.37502 127.527C7.45318 130.328 11.3738 132.508 13.1559 136.233C14.7111 139.496 14.4681 143.634 16.9793 146.26C18.5021 147.852 20.7216 148.536 22.6981 149.507C31.4628 153.837 32.8707 155.438 41.2466 160.468C44.9403 162.696 49.2336 163.746 53.4458 164.749C59.6993 166.261 65.9528 167.773 72.2063 169.285C76.4185 170.304 80.6793 171.323 85.0211 171.434C98.2572 171.784 92.8006 168.176 105.923 166.553C108.159 166.282 110.476 166.171 112.501 165.216C114.461 164.293 119.74 166.457 121.506 165.216C123.677 163.688 126.237 162.749 128.391 161.173C130.821 159.39 136.661 160.948 138.264 158.433C142.574 151.669 148.691 150.869 153.697 144.582C155.447 142.385 157.596 138.86 161.504 131.984C164.679 126.397 169.522 125.402 169.522 116.845C169.457 115.699 174.928 106.673 171.637 105.641C165.054 100.091 166.086 102.649 156.762 105.641Z" fill="#F1E2CC"/>
<path d="M163.248 101.731C159.116 100.895 154.821 101.965 150.629 101.525C146.304 101.071 142.054 99.0336 137.803 99.8544C133.167 100.763 129.464 104.926 124.754 104.955C120.296 104.97 116.653 101.247 112.254 100.514C105.841 99.444 99.9014 104.868 93.4141 104.618C89.4004 104.472 85.8309 102.185 82.0541 100.837C79.0475 99.7665 75.8483 99.5613 73.1675 100.939C74.3079 101.995 75.5965 102.918 76.9887 103.622C78.6624 104.486 80.4693 105.073 82.1578 105.923C84.8238 107.271 87.1935 109.265 90.0817 110.013C96.9984 111.801 104.463 105.894 111.143 108.415C113.513 109.25 115.349 110.951 117.571 111.713C121.466 113.047 126.147 111.728 130.412 109.983C134.678 108.239 138.958 106.407 143.535 106.187C148.556 105.938 153.843 107.594 158.523 106.524C160.197 106.143 161.663 105.351 163.174 104.53C164.329 103.9 165.529 103.314 166.744 102.771C165.573 102.361 164.433 101.965 163.248 101.731Z" fill="#D5BB96"/>
<path d="M18.7497 115.6C19.1435 116.692 18.9466 118.061 18.1788 118.868C17.9918 119.065 17.7654 119.232 17.5094 119.35C16.909 119.626 16.2199 119.626 15.5604 119.616C12.2529 119.586 10.983 118.779 13.3062 115.787C14.9008 113.729 17.5783 112.312 18.7497 115.6Z" fill="#E7D4B8"/>
<path d="M128.939 149.356C128.998 149.72 129.038 150.104 128.88 150.439C128.762 150.695 128.545 150.892 128.329 151.069C124.244 154.347 117.314 151.876 119.017 146.107C119.578 144.198 121.005 142.83 123.013 142.633C126.774 142.249 128.447 146.245 128.939 149.356Z" fill="#E7D4B8"/>
<path d="M22.765 137.411C24.655 136.407 26.0528 135.432 27.9133 135.166C29.6359 134.901 32.0476 135.294 34.105 136.909C35.6406 137.637 36.7628 138.877 38.0228 139.596C43.171 140.964 51.9516 137.706 58.7635 135.137C60.5551 134.802 62.2777 134.517 64.1579 134.96C69.188 136.19 74.1985 139.379 79.14 139.616C84.7214 139.911 90.3422 136.18 95.0573 132.075C95.7956 134.31 94.3978 136.82 93.0295 139.301C89.6039 146.447 83.1366 149.4 76.1475 147.087C71.8064 145.611 67.7114 142.756 63.3605 141.742C58.6847 140.649 54.7965 143.445 50.416 144.971C45.9863 147.589 41.1826 149.617 37.4518 148.898C35.4831 148.514 33.6029 147.235 31.2404 146.103C27.1455 143.937 16.8095 148.406 12.5078 146.615C10.0272 143.711 20.1761 138.927 22.765 137.411Z" fill="#E7D4B8"/>
<path d="M142.058 120.8C141.281 121.115 140.424 121.194 139.588 121.243C134.981 121.509 130.207 120.987 125.108 120.229C123.188 120.584 121.2 121.184 119.359 122.08C117.518 123.005 115.933 124.039 115.726 124.59C115.51 125.141 116.711 125.033 118.306 124.679C119.9 124.334 121.78 124.019 123.582 124.147C128.11 126.559 132.746 127.425 137.294 126.864C141.212 126.244 145.228 125.594 148.752 123.684C151.587 122.405 153.802 121.952 157.631 122.936C159.748 123.527 166.294 126.49 167.819 125.909C170.162 125.023 168.095 123.94 166.136 122.523C163.429 120.574 158.586 117.089 154.855 115.898C148.555 113.988 146.734 119.078 142.058 120.8Z" fill="#E7D4B8"/>
<path fill-rule="evenodd" clip-rule="evenodd" d="M43.8686 57.8096C44.3625 58.1443 44.4914 58.8156 44.1566 59.3092C43.6174 60.1042 42.3444 62.762 42.181 66.311C42.1535 66.9067 41.6481 67.3674 41.0521 67.3399C40.4561 67.3125 39.9952 66.8074 40.0226 66.2117C40.2049 62.2548 41.6111 59.2137 42.3682 58.0975C42.703 57.6039 43.3748 57.475 43.8686 57.8096Z" fill="#FF0000"/>
<path d="M42.3791 71.1198C42.3791 72.0143 41.6536 72.7394 40.7586 72.7394C39.8637 72.7394 39.1382 72.0143 39.1382 71.1198C39.1382 70.2254 39.8637 69.5002 40.7586 69.5002C41.6536 69.5002 42.3791 70.2254 42.3791 71.1198Z" fill="#FF0000"/>
<path d="M24.8448 63.249C28.0814 64.2593 30.9216 66.1482 33.4095 68.6959C35.6553 71.002 37.6808 74.1208 39.1119 77.6789C42.3705 85.8712 41.776 94.8102 39.8605 103.925C39.5743 105.155 39.7504 106.429 39.7064 107.329C39.7725 108.23 38.5395 108.603 37.3506 107.878C36.2497 107.132 35.8534 105.726 34.9507 105.133C33.7178 104.364 30.4592 104.891 28.6318 105.484C27.597 106.714 27.0906 108.823 25.5714 109.372C24.3605 109.679 23.9421 108.867 23.8321 108.01C23.788 105.682 23.2816 103.683 21.9166 101.86C17.4031 97.6655 14.8491 93.3607 13.5941 88.1773C12.6914 84.4436 12.9336 80.6659 13.1317 76.8882C13.2638 74.2746 13.5501 71.6829 14.1886 69.1352C14.6729 67.2244 15.3114 65.2916 16.1481 63.5126C16.2802 63.2051 16.4563 62.8976 16.7205 62.678C17.6893 61.9092 19.4947 62.3485 20.5955 62.4364C22.0927 62.5681 23.5018 62.8317 24.8448 63.249Z" fill="#B78B58"/>
<path d="M40.7588 93.2515C41.3312 92.9879 41.9477 93.1197 42.4761 93.3833C43.3128 93.7786 45.5365 95.1623 44.942 92.8122C44.4797 90.4621 40.8028 89.342 41.2872 85.6961" fill="#B78B58"/>
<path d="M20.5292 99.4004C18.988 99.7299 19.1421 101.575 17.8651 102.212C17.667 102.3 17.3808 102.3 17.2046 102.168C17.0945 102.08 17.0285 101.948 16.9624 101.838C16.434 100.696 16.2579 99.4663 16.456 98.3023C16.6322 97.2041 17.2707 96.084 16.9624 94.9199" fill="#B78B58"/>
<path d="M12.1402 60.4594C12.0741 59.471 12.3383 58.4388 13.0209 57.714C13.4392 57.2747 13.9896 56.9672 14.43 56.5719C14.6942 56.3523 14.9364 56.0887 15.2446 55.8691C16.2574 55.1882 17.6004 55.4957 18.7894 55.8471C19.4499 56.0448 20.1544 56.2644 20.5728 56.8135C22.136 58.878 22.3341 63.9735 19.3398 64.8081C18.0188 65.1815 16.3895 65.0058 15.0905 64.7862C12.9768 64.4567 12.2723 62.502 12.1402 60.4594Z" fill="#B78B58"/>
<path fill-rule="evenodd" clip-rule="evenodd" d="M17.1334 63.7506C17.73 63.76 18.206 64.2509 18.1967 64.8471L18.1966 64.8513C18.1527 67.6527 18.1085 70.4769 17.9072 72.9986L17.9066 73.0063L17.9065 73.0063C17.1533 81.6583 18.859 89.6656 23.909 96.1177C24.2383 96.5308 24.5798 96.9354 24.9326 97.3534L24.9373 97.359C25.2865 97.7726 25.647 98.1997 25.9978 98.6399L26.0007 98.6436C27.1796 100.136 28.2472 101.722 29.1797 103.401C29.4693 103.922 29.2811 104.579 28.7595 104.869C28.2378 105.158 27.5802 104.97 27.2906 104.449C26.4181 102.878 25.4166 101.389 24.3064 99.9835C23.9766 99.5698 23.6347 99.1646 23.2813 98.7459L23.2766 98.7404C22.9274 98.3267 22.5669 97.8997 22.2161 97.4594L22.2103 97.4522L22.2104 97.4522C16.7392 90.4644 14.9668 81.8704 15.7537 72.8231C15.9483 70.3833 15.9922 67.6318 16.0363 64.8133C16.0457 64.2171 16.5369 63.7413 17.1334 63.7506Z" fill="#D5BB96"/>
<path fill-rule="evenodd" clip-rule="evenodd" d="M20.2166 62.5827C20.4999 62.0579 21.1552 61.8619 21.6803 62.145C30.6673 66.9897 38.5331 77.0945 39.7667 88.1011L39.7667 88.1013C40.3436 93.2576 39.0095 99.2884 37.0927 103.9C36.8638 104.451 36.2316 104.712 35.6806 104.483C35.1296 104.254 34.8685 103.622 35.0974 103.072C36.9235 98.6783 38.1434 93.0247 37.6195 88.3415C36.4752 78.1315 29.1052 68.6012 20.6546 64.0456C20.1295 63.7625 19.9334 63.1076 20.2166 62.5827Z" fill="#D5BB96"/>
<path fill-rule="evenodd" clip-rule="evenodd" d="M19.1451 63.0546C19.7138 62.8741 20.3212 63.1884 20.5018 63.7568C21.6863 67.4834 23.3415 71.131 25.0475 74.8907C25.368 75.597 25.6903 76.3072 26.0116 77.0227C28.0291 81.5153 29.9917 86.1828 31.0742 91.1774L31.0743 91.1779C31.5193 93.2359 31.9407 95.896 32.3376 98.4014C32.5893 99.9897 32.8311 101.516 33.0628 102.787C33.1697 103.374 32.7805 103.936 32.1936 104.043C31.6066 104.15 31.0441 103.761 30.9371 103.174C30.6848 101.79 30.436 100.215 30.1824 98.6095C29.7971 96.1704 29.4004 93.6597 28.9626 91.6346C27.9315 86.8775 26.052 82.3863 24.0404 77.9069C23.7269 77.2088 23.4097 76.51 23.0922 75.8105C21.3866 72.0531 19.6694 68.2702 18.4426 64.4106C18.262 63.8422 18.5765 63.2352 19.1451 63.0546Z" fill="#D5BB96"/>
<path d="M22.4798 84.4255C22.7219 84.3816 23.052 84.4255 23.382 84.6012C23.6021 84.711 23.8441 84.9526 23.9762 85.1942C24.1082 85.4797 24.0422 85.6994 23.9542 85.8751C23.8441 86.0947 23.7121 86.2924 23.5801 86.4901C23.4481 86.6658 23.272 86.7975 22.9859 86.7756C22.2158 86.6658 21.7537 85.5017 21.8857 85.0185C21.9737 84.6891 22.1938 84.4914 22.4798 84.4255Z" fill="#614925"/>
<path d="M34.3024 81.7895C34.1484 81.6138 33.8623 81.4381 33.5322 81.3942C33.3122 81.3722 33.0261 81.3942 32.8281 81.5479C32.586 81.7017 32.564 81.9213 32.542 82.119C32.542 82.3606 32.542 82.6022 32.564 82.8438C32.608 83.0634 32.674 83.283 32.8941 83.4148C33.5322 83.7882 34.3904 83.1073 34.5004 82.6241C34.5885 82.2947 34.5004 82.0091 34.3024 81.7895Z" fill="#614925"/>
<path d="M28.1537 88.6404C27.6473 88.882 27.163 89.1236 26.5465 89.0358C25.0713 88.8161 25.6438 86.9273 26.1942 85.9829C27.185 84.5552 28.7042 84.094 30.2454 84.7968C31.104 85.2141 32.0728 85.8291 32.2489 86.7516C32.293 86.9712 32.2709 87.2348 32.1388 87.4324C31.8086 87.9376 31.038 88.0035 30.5536 88.0694C29.739 88.1572 28.8803 88.267 28.1537 88.6404Z" fill="#FAEDE1"/>
</svg>
