<svg width="383" height="820" viewBox="0 0 383 820" fill="none" xmlns="http://www.w3.org/2000/svg">
<g clip-path="url(#clip0_303_11914)" filter="url(#filter0_d_303_11914)">
<rect width="375" height="812" transform="translate(4)" fill="white"/>
<rect x="4" width="375" height="812" fill="#F9F3EA"/>
<g filter="url(#filter1_f_303_11914)">
<path d="M78.4474 620.581C83.0124 620.302 87.5641 619.957 92.1025 619.599C97.7423 619.161 103.395 618.736 109.035 618.298C117.051 617.688 125.225 617.038 132.431 614.888C139.636 612.725 145.847 608.77 146.975 603.767C147.983 599.335 144.971 594.876 142.105 590.67C129.06 571.508 117.608 551.947 107.841 532.121C103.966 524.265 100.33 516.317 94.584 508.885C90.0323 503.007 84.2067 497.513 78.4076 492.059C71.4407 485.49 64.4606 478.921 57.4937 472.352C53.8311 468.902 50.1685 465.452 45.8822 462.293C40.7068 458.472 34.6423 455.088 30.1835 450.947C26.521 447.537 24.0261 443.702 20.1512 440.384C16.2763 437.067 10.4374 434.2 4.01463 434.267C-6.07076 434.373 -11.7106 441.101 -15.3334 446.913C-22.9505 459.148 -30.6207 471.49 -33.9913 484.561C-35.0662 488.688 -35.6899 492.868 -36.3269 497.048C-38.7155 512.787 -41.1042 528.565 -40.2947 544.45C-39.7639 554.814 -37.8795 565.178 -35.9951 575.528C-35.0397 580.73 -34.0975 585.946 -33.1421 591.148C-31.961 597.65 -31.8416 607.072 -25.4188 612.738C-20.4557 617.104 -11.339 617.489 -3.65557 618.378C23.5484 621.47 51.2567 622.253 78.4474 620.581Z" fill="#C0D0AC"/>
<path d="M-4.49999 501C22.2858 501 44 479.286 44 452.5C44 425.714 22.2858 404 -4.49999 404C-31.2858 404 -53 425.714 -53 452.5C-53 479.286 -31.2858 501 -4.49999 501Z" fill="#C0D0AC"/>
<path d="M86.4359 557.162C106.026 557.162 121.907 541.281 121.907 521.691C121.907 502.101 106.026 486.22 86.4359 486.22C66.8457 486.22 50.9646 502.101 50.9646 521.691C50.9646 541.281 66.8457 557.162 86.4359 557.162Z" fill="#C0D0AC"/>
<path d="M121.31 578.076C134.231 578.076 144.705 567.602 144.705 554.681C144.705 541.76 134.231 531.285 121.31 531.285C108.389 531.285 97.9146 541.76 97.9146 554.681C97.9146 567.602 108.389 578.076 121.31 578.076Z" fill="#C0D0AC"/>
<path d="M145 656C170.405 656 191 635.405 191 610C191 584.595 170.405 564 145 564C119.595 564 99 584.595 99 610C99 635.405 119.595 656 145 656Z" fill="#C0D0AC"/>
<path d="M198.5 659C213.688 659 226 646.688 226 631.5C226 616.312 213.688 604 198.5 604C183.312 604 171 616.312 171 631.5C171 646.688 183.312 659 198.5 659Z" fill="#C0D0AC"/>
<path d="M52 492C63.0457 492 72 483.046 72 472C72 460.954 63.0457 452 52 452C40.9543 452 32 460.954 32 472C32 483.046 40.9543 492 52 492Z" fill="#C0D0AC"/>
<path d="M78.8722 500.193C86.5969 500.193 92.8591 493.931 92.8591 486.206C92.8591 478.481 86.5969 472.219 78.8722 472.219C71.1475 472.219 64.8854 478.481 64.8854 486.206C64.8854 493.931 71.1475 500.193 78.8722 500.193Z" fill="#C0D0AC"/>
<path d="M363.624 563.797C376.34 563.797 386.648 553.489 386.648 540.773C386.648 528.058 376.34 517.749 363.624 517.749C350.908 517.749 340.6 528.058 340.6 540.773C340.6 553.489 350.908 563.797 363.624 563.797Z" fill="#C0D0AC"/>
<path d="M368.839 526.813C375.868 526.813 381.565 521.115 381.565 514.087C381.565 507.058 375.868 501.361 368.839 501.361C361.811 501.361 356.113 507.058 356.113 514.087C356.113 521.115 361.811 526.813 368.839 526.813Z" fill="#C0D0AC"/>
<path d="M381.565 514.153C392.903 514.153 402.094 504.962 402.094 493.624C402.094 482.286 392.903 473.095 381.565 473.095C370.227 473.095 361.036 482.286 361.036 493.624C361.036 504.962 370.227 514.153 381.565 514.153Z" fill="#C0D0AC"/>
<path d="M312 660C332.435 660 349 643.435 349 623C349 602.565 332.435 586 312 586C291.565 586 275 602.565 275 623C275 643.435 291.565 660 312 660Z" fill="#C0D0AC"/>
<path d="M374.598 633.519C370.033 633.241 365.482 632.896 360.943 632.537C355.304 632.099 349.65 631.675 344.011 631.237C335.995 630.626 327.821 629.976 320.615 627.826C313.409 625.663 307.199 621.709 306.071 616.706C305.062 612.274 308.075 607.815 310.941 603.608C323.986 584.446 335.425 564.886 345.205 545.06C349.08 537.204 352.716 529.255 358.462 521.824C363.014 515.945 368.839 510.451 374.638 504.997C381.605 498.428 388.585 491.859 395.552 485.291C399.215 481.84 402.877 478.39 407.164 475.232C412.339 471.41 418.404 468.026 422.862 463.886C426.525 460.475 429.02 456.64 432.895 453.323C436.77 450.005 442.608 447.139 449.031 447.205C459.117 447.311 464.757 454.039 468.379 459.852C475.996 472.087 483.667 484.428 487.037 497.499C488.112 501.626 488.736 505.806 489.373 509.987C491.761 525.725 494.15 541.503 493.341 557.388C492.81 567.752 490.925 578.116 489.041 588.467C488.086 593.669 487.143 598.884 486.188 604.086C485.007 610.588 484.887 620.01 478.465 625.677C473.502 630.042 464.385 630.427 456.701 631.316C429.497 634.408 401.789 635.191 374.598 633.519Z" fill="#C0D0AC"/>
<path d="M331.921 608.359C349.43 608.359 363.624 594.165 363.624 576.656C363.624 559.147 349.43 544.953 331.921 544.953C314.412 544.953 300.219 559.147 300.219 576.656C300.219 594.165 314.412 608.359 331.921 608.359Z" fill="#C0D0AC"/>
<path d="M389.726 722.27C384.338 721.939 378.977 721.527 373.602 721.116C366.941 720.612 360.279 720.094 353.617 719.59C344.156 718.86 334.508 718.103 326.002 715.569C317.496 713.034 310.171 708.35 308.843 702.445C307.662 697.216 311.206 691.948 314.59 686.985C329.983 664.372 343.492 641.309 355.024 617.9C359.589 608.637 363.875 599.255 370.67 590.484C376.044 583.543 382.905 577.067 389.752 570.618C397.98 562.868 406.207 555.118 414.435 547.369C418.748 543.308 423.074 539.234 428.13 535.505C434.234 530.993 441.4 527.012 446.655 522.115C450.981 518.094 453.927 513.556 458.492 509.641C463.057 505.727 469.957 502.356 477.535 502.436C489.438 502.555 496.1 510.504 500.36 517.351C509.344 531.789 518.394 546.36 522.388 561.767C523.649 566.637 524.405 571.573 525.148 576.497C527.962 595.062 530.788 613.693 529.833 632.431C529.209 644.666 526.98 656.888 524.75 669.096C523.636 675.241 522.508 681.385 521.393 687.529C519.986 695.199 519.867 706.32 512.276 712.994C506.424 718.157 495.662 718.594 486.598 719.643C454.498 723.332 421.813 724.234 389.726 722.27Z" fill="#67986C"/>
<path d="M380.291 647.439C403.406 647.439 422.145 628.7 422.145 605.585C422.145 582.469 403.406 563.731 380.291 563.731C357.175 563.731 338.436 582.469 338.436 605.585C338.436 628.7 357.175 647.439 380.291 647.439Z" fill="#67986C"/>
<path d="M339.153 672.109C354.397 672.109 366.755 659.751 366.755 644.507C366.755 629.263 354.397 616.905 339.153 616.905C323.908 616.905 311.551 629.263 311.551 644.507C311.551 659.751 323.908 672.109 339.153 672.109Z" fill="#67986C"/>
<path d="M332.598 721.607C351.008 721.607 365.932 706.682 365.932 688.272C365.932 669.861 351.008 654.937 332.598 654.937C314.187 654.937 299.263 669.861 299.263 688.272C299.263 706.682 314.187 721.607 332.598 721.607Z" fill="#67986C"/>
<path d="M389.222 580.239C398.339 580.239 405.73 572.848 405.73 563.731C405.73 554.613 398.339 547.223 389.222 547.223C380.104 547.223 372.714 554.613 372.714 563.731C372.714 572.848 380.104 580.239 389.222 580.239Z" fill="#67986C"/>
<path d="M67.2487 619.268C82.2584 619.268 94.4262 607.1 94.4262 592.09C94.4262 577.081 82.2584 564.913 67.2487 564.913C52.2391 564.913 40.0713 577.081 40.0713 592.09C40.0713 607.1 52.2391 619.268 67.2487 619.268Z" fill="#67986C"/>
<path d="M61.091 575.609C69.3801 575.609 76.0997 568.889 76.0997 560.6C76.0997 552.311 69.3801 545.591 61.091 545.591C52.802 545.591 46.0824 552.311 46.0824 560.6C46.0824 568.889 52.802 575.609 61.091 575.609Z" fill="#67986C"/>
<path d="M46.0828 560.693C59.4655 560.693 70.3142 549.844 70.3142 536.461C70.3142 523.079 59.4655 512.23 46.0828 512.23C32.7001 512.23 21.8513 523.079 21.8513 536.461C21.8513 549.844 32.7001 560.693 46.0828 560.693Z" fill="#67986C"/>
<path d="M6.6299 538.956C20.7968 538.956 32.2813 527.471 32.2813 513.305C32.2813 499.138 20.7968 487.653 6.6299 487.653C-7.53697 487.653 -19.0215 499.138 -19.0215 513.305C-19.0215 527.471 -7.53697 538.956 6.6299 538.956Z" fill="#67986C"/>
<path d="M135.405 688.339C144.522 688.339 151.913 680.948 151.913 671.831C151.913 662.714 144.522 655.323 135.405 655.323C126.287 655.323 118.896 662.714 118.896 671.831C118.896 680.948 126.287 688.339 135.405 688.339Z" fill="#67986C"/>
<path d="M54.2968 701.517C59.6846 701.185 65.0457 700.773 70.4202 700.362C77.0818 699.858 83.7435 699.34 90.4052 698.836C99.8668 698.106 109.514 697.35 118.021 694.815C126.527 692.267 133.852 687.596 135.179 681.691C136.36 676.462 132.817 671.194 129.433 666.231C114.039 643.618 100.53 620.555 88.9985 597.146C84.4335 587.883 80.134 578.501 73.3529 569.73C67.9785 562.789 61.1178 556.314 54.2703 549.864C46.0428 542.114 37.8152 534.365 29.5877 526.615C25.2748 522.554 20.9487 518.48 15.8928 514.751C9.78846 510.239 2.62253 506.258 -2.63249 501.361C-6.95859 497.341 -9.90458 492.802 -14.4695 488.887C-19.0345 484.973 -25.935 481.602 -33.5123 481.682C-45.4157 481.801 -52.0774 489.75 -56.3372 496.597C-65.3344 511.022 -74.3714 525.58 -78.3658 541C-79.6264 545.87 -80.3828 550.806 -81.126 555.73C-83.9393 574.295 -86.7658 592.926 -85.8104 611.664C-85.1867 623.899 -82.9573 636.121 -80.7279 648.329C-79.6132 654.474 -78.4852 660.618 -77.3705 666.762C-75.9638 674.432 -75.8444 685.552 -68.2538 692.227C-62.4017 697.389 -51.6395 697.827 -42.5759 698.876C-10.4885 702.578 22.2094 703.481 54.2968 701.517Z" fill="#67986C"/>
<path d="M104.657 671.831C125.318 671.831 142.066 655.083 142.066 634.422C142.066 613.762 125.318 597.013 104.657 597.013C83.9971 597.013 67.2487 613.762 67.2487 634.422C67.2487 655.083 83.9971 671.831 104.657 671.831Z" fill="#67986C"/>
</g>
<path d="M383.548 656.398C384.5 648.455 384.207 640.183 383.804 632.167C383.658 629.531 383.512 626.786 382.194 624.516C378.828 618.696 370.045 619.099 364.154 622.357C363.349 622.796 362.544 623.308 361.739 623.821C356.872 627.005 352.554 631.178 347.065 632.972C338.941 635.607 330.122 632.569 321.596 632.606C313.948 632.642 306.409 635.205 298.798 634.436C290.82 633.631 283.612 629.238 275.744 627.628C265.534 625.541 254.922 628.213 244.566 627.115C233.881 625.98 223.379 620.892 212.877 622.942C201.423 625.212 192.311 635.607 180.638 635.644C169.587 635.681 160.585 626.383 149.716 624.553C133.871 621.881 119.197 635.424 103.169 634.802C93.2527 634.436 84.4336 628.726 75.1023 625.358C65.6246 621.954 55.3419 621.991 47.95 629.348C40.5215 636.742 34.6666 641.537 23.652 641.72C14.9793 641.903 4.66 642.342 0.0126379 649.663C-1.34132 651.75 -1.92681 654.056 -1.96341 656.398H-2V856.147H384.17V656.398H383.548Z" fill="#F1E2CC"/>
<path d="M103.925 754.664C102.904 754.812 101.798 754.671 100.774 754.337C97.9269 753.417 96.0286 750.289 93.1125 751.937C90.8271 752.829 89.0475 754.428 86.6465 754.787C84.3517 755.118 82.007 755.139 80.4896 754.284C77.8607 752.421 77.2613 748.937 77.1863 745.49C77.2207 742.723 76.6681 739.959 76.1154 737.21C75.8875 735.01 75.7252 732.534 78.4196 731.342C78.9785 731.087 79.553 730.986 80.1118 731.002C80.986 731.029 81.9914 731.173 82.8812 731.719C84.1987 732.353 84.5796 733.707 84.4922 735.086C84.4548 736.594 84.1269 738.261 84.0957 739.857C83.7648 742.07 83.7117 744.328 84.0863 746.915C84.0863 746.924 84.0895 746.936 84.0926 746.945C84.3767 748.312 86.0814 748.94 87.5301 748.107C88.5979 747.387 89.6095 746.722 90.5555 746.225C92.9127 745.162 95.1076 745.484 97.0589 746.452C98.1361 746.988 101.477 750.782 102.907 750.534C103.8 750.377 104.855 749.89 105.86 750.295C107.865 751.098 106.825 753.356 105.751 754.021C105.205 754.358 104.583 754.569 103.925 754.664Z" fill="#F8A1A6"/>
<path d="M80.5801 740.636C81.6448 740.476 82.5346 740.262 83.2902 740.149C83.5555 740.103 83.8365 740.066 84.1175 740.179C84.614 740.381 84.5983 740.948 84.6858 741.402C84.7357 742.039 84.8325 742.674 84.948 743.348C85.0105 743.817 85.1166 744.298 85.2134 744.779C85.279 745.15 85.5319 745.606 85.1135 745.857C84.7388 746.075 84.0738 746.054 83.6336 746.066C82.9311 746.078 82.2349 746.047 81.5511 746.011C80.7269 745.995 79.887 745.956 79.0565 745.897C78.4289 745.854 77.4673 745.864 76.9397 745.658C76.7367 745.582 76.615 745.447 76.5338 745.306C76.0686 744.252 76.1935 742.579 76.0998 741.411C76.0155 740.685 76.9459 740.795 77.8732 740.817C78.788 740.838 79.7028 740.755 80.5801 740.636Z" fill="#F8C5BA"/>
<path d="M81.5105 735.006C81.4044 735.024 81.267 735.095 81.1577 735.217C81.0828 735.3 81.0141 735.435 81.0016 735.558C80.9891 735.702 81.0516 735.778 81.114 735.833C81.1952 735.907 81.2795 735.974 81.3731 736.026C81.4574 736.075 81.5574 736.109 81.6666 736.048C81.9757 735.879 81.9913 735.331 81.854 735.147C81.7665 735.034 81.6479 734.981 81.5105 735.006Z" fill="#595550"/>
<path d="M78.0311 735.339C78.0717 735.241 78.1623 735.13 78.2934 735.06C78.3808 735.011 78.5119 734.983 78.6181 735.011C78.743 735.042 78.7929 735.124 78.8242 735.201C78.8679 735.302 78.9022 735.403 78.9241 735.507C78.9459 735.605 78.9522 735.71 78.8741 735.798C78.6618 736.05 78.1966 735.9 78.0717 735.713C77.9937 735.596 77.9781 735.464 78.0311 735.339Z" fill="#595550"/>
</g>
<path d="M210.189 658.829C207.49 631.409 189.259 620.622 180.944 634.861C175.978 643.363 175.898 657.778 179.22 671.252C180.887 677.988 183.239 684.254 185.978 689.576C188.971 695.377 192.403 698.554 195.665 703.402C197.046 705.443 198.523 707.788 200.016 708.821C203.605 711.374 204.508 702.171 205.527 698.289C207.037 692.991 208.49 686.826 209.494 679.721C210.701 673.053 210.909 666.091 210.189 658.829Z" fill="#F5873E"/>
<path d="M189.481 661.92C189.687 661.896 189.984 662.054 190.273 662.432C190.468 662.699 190.697 663.157 190.823 663.627C190.957 664.168 190.909 664.538 190.849 664.812C190.763 665.162 190.666 665.513 190.549 665.794C190.429 666.051 190.295 666.285 190.046 666.145C189.363 665.766 188.899 663.639 188.995 662.803C189.047 662.263 189.218 661.952 189.481 661.92Z" fill="#595550"/>
<path d="M199.619 659.977C199.473 659.63 199.221 659.272 198.935 659.113C198.738 659.015 198.495 659.02 198.32 659.211C198.126 659.428 198.103 659.819 198.106 660.134C198.112 660.57 198.13 661.004 198.167 661.412C198.204 661.82 198.276 662.223 198.485 662.514C199.054 663.294 199.771 662.311 199.834 661.479C199.885 660.939 199.811 660.414 199.619 659.977Z" fill="#595550"/>
<path d="M195.795 664.365C196.223 664.071 196.638 663.754 197.173 664.054C198.454 664.773 198.069 667.948 197.629 669.504C196.838 671.806 195.535 672.254 194.162 670.672C193.401 669.745 192.514 668.445 192.316 666.795C192.267 666.389 192.281 665.926 192.381 665.599C192.641 664.767 193.313 664.856 193.728 664.831C194.44 664.867 195.18 664.851 195.795 664.365Z" fill="#FAEDE1"/>
<path d="M206.798 633.275C212 627.5 215.156 620 215.238 610.992C215.307 603.465 211.984 595.344 203.688 593.407C198.149 592.185 193.251 595.606 190.495 599.811C189.991 600.588 189.531 601.417 189.122 602.285C185.2 598.723 179.629 597.064 174.255 599.295C169.09 601.514 167.233 607.14 167.562 612.159C168.008 618.525 170.19 628.545 173.763 634.245C176.5 638 179.481 642 187 642C191 642 194.173 640.591 196.097 640C202.097 637.5 203.097 636.5 206.798 633.275Z" fill="#4A8A51"/>
<path d="M275.954 657.9C273.559 659.439 271.435 661.455 268.734 662.322C264.737 663.596 260.397 662.127 256.202 662.145C252.439 662.163 248.73 663.401 244.985 663.03C241.059 662.64 237.512 660.518 233.641 659.739C228.618 658.731 223.396 660.022 218.3 659.492C213.043 658.943 207.875 656.484 202.708 657.475C197.072 658.572 192.588 663.596 186.845 663.613C181.425 663.631 176.996 659.138 171.648 658.253C163.852 656.962 156.631 663.507 148.745 663.206C143.866 663.03 139.526 660.27 134.935 658.643C130.271 656.997 125.212 657.015 121.575 660.571C117.92 664.144 115.039 666.461 109.619 666.55C105.352 666.621 100.274 666.833 97.9875 670.371C95.4847 674.227 98.1315 679.392 101.553 682.506C104.974 685.619 109.331 688.043 111.312 692.182C113.04 695.808 112.77 700.408 115.561 703.326C117.253 705.095 119.72 705.856 121.917 706.935C131.658 711.747 136.321 723.21 145.63 728.8C149.735 731.276 154.507 732.444 159.188 733.558C166.138 735.239 173.088 736.919 180.039 738.6C184.72 739.732 189.456 740.864 194.281 740.988C208.991 741.377 222.334 732.426 236.918 730.622C239.403 730.321 241.978 730.197 244.228 729.136C246.407 728.11 248.081 726.323 250.044 724.943C252.457 723.245 255.302 722.201 257.696 720.45C260.397 718.469 262.396 715.709 264.178 712.914C268.968 705.396 272.677 697.17 278.241 690.183C280.185 687.742 282.364 685.442 283.894 682.736C287.424 676.527 287.153 668.991 286.811 661.88C286.739 660.606 286.667 659.279 286.019 658.183C284.363 655.37 280.041 655.565 277.142 657.139C276.728 657.404 276.35 657.652 275.954 657.9Z" fill="#F1E2CC"/>
<path d="M239.115 655.3C234.523 654.371 229.749 655.56 225.091 655.071C220.284 654.566 215.56 652.302 210.835 653.214C205.683 654.224 201.568 658.851 196.333 658.884C191.379 658.9 187.329 654.762 182.44 653.947C175.313 652.758 168.712 658.786 161.502 658.509C157.041 658.346 153.074 655.805 148.877 654.306C145.535 653.117 141.979 652.888 139 654.42C140.267 655.593 141.7 656.619 143.247 657.401C145.107 658.362 147.115 659.014 148.992 659.959C151.955 661.458 154.588 663.673 157.798 664.504C165.486 666.491 173.782 659.926 181.206 662.728C183.84 663.657 185.881 665.547 188.35 666.394C192.679 667.876 197.881 666.41 202.621 664.471C207.362 662.533 212.119 660.496 217.206 660.252C222.786 659.975 228.663 661.816 233.864 660.627C235.724 660.203 237.354 659.323 239.033 658.411C240.317 657.711 241.65 657.059 243 656.456C241.7 656 240.432 655.56 239.115 655.3Z" fill="#D5BB96"/>
<path d="M58.5017 683.632C60.6679 682.745 62.9326 681.936 65.2738 681.958C66.2803 681.969 67.3087 682.144 68.1729 682.669C69.3545 683.391 70.0765 684.693 71.2143 685.481C72.5819 686.421 74.3542 686.509 76.0171 686.389C77.6691 686.279 79.3539 686.006 80.984 686.367C86.3119 687.559 84.2551 692.679 80.3057 693.992C76.8048 695.163 73.1289 695.852 69.6061 697.055C63.775 699.036 57.8672 699.003 54.1475 693.117C51.2593 688.555 54.235 685.371 58.5017 683.632Z" fill="#E7D4B8"/>
<path d="M306.109 664.205C306.638 664.095 307.166 663.962 307.655 663.586C308.051 663.276 308.408 662.811 308.804 662.479C309.98 661.527 311.367 661.925 312.662 662.014C315.396 662.169 318.078 660.752 320.799 660.353C324.194 659.866 332.622 665.268 327.259 671.378C324.287 674.766 318.289 675.496 314.749 675.208C311.05 674.921 307.404 673.26 303.718 672.64C301.763 672.308 297.668 672.397 299.636 667.172C300.72 664.36 304.405 664.582 306.109 664.205Z" fill="#E7D4B8"/>
<path d="M302.414 695.659C302.831 695.729 303.273 695.816 303.627 696.148C304.663 697.092 304.448 699.241 304.107 700.883C303.956 701.617 303.779 702.404 303.337 702.876C302.869 703.382 302.225 703.4 301.631 703.382C297.778 703.33 293.66 702.666 289.832 703.278C288.392 703.505 283.705 706.266 284.21 701.46C284.816 695.431 299.294 695.134 302.414 695.659Z" fill="#E7D4B8"/>
<path d="M255.501 706.759C255.939 707.974 255.72 709.494 254.867 710.392C254.659 710.61 254.407 710.796 254.123 710.928C253.456 711.234 252.69 711.234 251.957 711.223C248.281 711.19 246.869 710.293 249.451 706.967C251.224 704.681 254.199 703.105 255.501 706.759Z" fill="#E7D4B8"/>
<path d="M104.33 665.187C104.396 665.591 104.44 666.018 104.264 666.39C104.133 666.674 103.892 666.893 103.652 667.09C99.1116 670.733 91.4096 667.987 93.3023 661.576C93.9259 659.454 95.5122 657.933 97.7441 657.714C101.923 657.288 103.783 661.729 104.33 665.187Z" fill="#E7D4B8"/>
<path d="M120.206 688.227C122.307 687.111 123.86 686.028 125.928 685.732C127.842 685.437 130.523 685.875 132.809 687.669C134.516 688.478 135.763 689.857 137.163 690.656C142.885 692.176 152.644 688.555 160.215 685.7C162.206 685.328 164.12 685.01 166.21 685.503C171.8 686.87 177.369 690.415 182.861 690.677C189.064 691.006 195.311 686.859 200.551 682.297C201.372 684.781 199.818 687.57 198.298 690.327C194.49 698.27 187.303 701.552 179.535 698.981C174.71 697.34 170.159 694.167 165.324 693.041C160.127 691.826 155.806 694.933 150.937 696.629C146.014 699.539 140.675 701.793 136.529 700.994C134.341 700.567 132.251 699.145 129.626 697.887C125.074 695.48 113.587 700.447 108.806 698.456C106.049 695.229 117.329 689.912 120.206 688.227Z" fill="#E7D4B8"/>
<path d="M254.574 675.03C253.709 675.38 252.758 675.468 251.828 675.522C246.708 675.818 241.402 675.238 235.734 674.395C233.601 674.789 231.391 675.457 229.345 676.452C227.3 677.481 225.538 678.629 225.308 679.242C225.068 679.855 226.402 679.734 228.175 679.34C229.947 678.958 232.037 678.607 234.039 678.75C239.071 681.43 244.224 682.393 249.279 681.769C253.633 681.08 258.096 680.358 262.013 678.235C265.164 676.813 267.625 676.31 271.881 677.404C274.233 678.06 281.509 681.353 283.204 680.708C285.808 679.723 283.511 678.52 281.334 676.945C278.325 674.778 272.942 670.905 268.796 669.582C261.794 667.459 259.77 673.115 254.574 675.03Z" fill="#E7D4B8"/>
<defs>
<filter id="filter0_d_303_11914" x="0" y="0" width="383" height="820" filterUnits="userSpaceOnUse" color-interpolation-filters="sRGB">
<feFlood flood-opacity="0" result="BackgroundImageFix"/>
<feColorMatrix in="SourceAlpha" type="matrix" values="0 0 0 0 0 0 0 0 0 0 0 0 0 0 0 0 0 0 127 0" result="hardAlpha"/>
<feOffset dy="4"/>
<feGaussianBlur stdDeviation="2"/>
<feComposite in2="hardAlpha" operator="out"/>
<feColorMatrix type="matrix" values="0 0 0 0 0 0 0 0 0 0 0 0 0 0 0 0 0 0 0.25 0"/>
<feBlend mode="normal" in2="BackgroundImageFix" result="effect1_dropShadow_303_11914"/>
<feBlend mode="normal" in="SourceGraphic" in2="effect1_dropShadow_303_11914" result="shape"/>
</filter>
<filter id="filter1_f_303_11914" x="-90.9999" y="399" width="626.022" height="329.283" filterUnits="userSpaceOnUse" color-interpolation-filters="sRGB">
<feFlood flood-opacity="0" result="BackgroundImageFix"/>
<feBlend mode="normal" in="SourceGraphic" in2="BackgroundImageFix" result="shape"/>
<feGaussianBlur stdDeviation="2.5" result="effect1_foregroundBlur_303_11914"/>
</filter>
<clipPath id="clip0_303_11914">
<rect width="375" height="812" fill="white" transform="translate(4)"/>
</clipPath>
</defs>
</svg>
