<svg width="24" height="24" viewBox="0 0 24 24" fill="none" xmlns="http://www.w3.org/2000/svg">
<path d="M12 0C9.62663 0 7.30655 0.703788 5.33316 2.02236C3.35977 3.34094 1.8217 5.21509 0.913451 7.4078C0.00519943 9.60051 -0.232441 12.0133 0.230582 14.3411C0.693605 16.6689 1.83649 18.8071 3.51472 20.4853C5.19295 22.1635 7.33115 23.3064 9.65892 23.7694C11.9867 24.2324 14.3995 23.9948 16.5922 23.0866C18.7849 22.1783 20.6591 20.6402 21.9776 18.6668C23.2962 16.6935 24 14.3734 24 12C23.9964 8.81851 22.731 5.76835 20.4813 3.51869C18.2317 1.26903 15.1815 0.0035976 12 0ZM17.6569 7.75732L12.7072 12.7071C12.6143 12.8 12.5041 12.8736 12.3827 12.9239C12.2614 12.9741 12.1314 13 12 13C11.8687 13 11.7387 12.9742 11.6174 12.9239C11.496 12.8737 11.3858 12.8 11.2929 12.7072C11.2 12.6143 11.1264 12.5041 11.0761 12.3827C11.0259 12.2614 11 12.1314 11 12C11 11.8687 11.0258 11.7387 11.0761 11.6173C11.1263 11.496 11.2 11.3858 11.2929 11.2929L16.2426 6.34314C16.3355 6.25028 16.4457 6.17662 16.567 6.12636C16.6884 6.0761 16.8184 6.05023 16.9497 6.05023C17.081 6.05023 17.2111 6.07609 17.3324 6.12634C17.4537 6.17659 17.564 6.25025 17.6568 6.34311C17.7497 6.43596 17.8234 6.5462 17.8736 6.66753C17.9239 6.78885 17.9497 6.91889 17.9497 7.05021C17.9498 7.18153 17.9239 7.31157 17.8736 7.43289C17.8234 7.55422 17.7497 7.66446 17.6569 7.75732H17.6569Z" fill="#595550"/>
</svg>
