<svg width="26" height="26" viewBox="0 0 26 26" fill="none" xmlns="http://www.w3.org/2000/svg">
<path d="M18.5932 11.5166C18.5932 12.8993 18.1831 14.2511 17.4149 15.4008C16.6467 16.5506 15.5547 17.4467 14.2772 17.9759C12.9997 18.5051 11.5939 18.6435 10.2377 18.3737C8.88145 18.104 7.63568 17.4381 6.6579 16.4603C5.68012 15.4825 5.01424 14.2368 4.74447 12.8805C4.4747 11.5243 4.61316 10.1185 5.14233 8.84101C5.6715 7.56348 6.56762 6.47155 7.71737 5.70331C8.86712 4.93508 10.2189 4.52503 11.6017 4.52503C13.4553 4.52713 15.2324 5.26441 16.5431 6.57512C17.8538 7.88583 18.5911 9.66293 18.5932 11.5166ZM24.8449 24.7606C24.6701 24.9354 24.433 25.0336 24.1857 25.0336C23.9385 25.0336 23.7013 24.9354 23.5265 24.7606L18.4899 19.724C16.3715 21.5025 13.6483 22.3946 10.8882 22.2142C8.12813 22.0338 5.5442 20.7949 3.6753 18.7558C1.80639 16.7167 0.796794 14.0348 0.857041 11.2695C0.917289 8.50415 2.04273 5.86882 3.99867 3.91305C5.95461 1.95728 8.59004 0.832068 11.3554 0.77206C14.1207 0.712053 16.8025 1.72188 18.8414 3.59096C20.8804 5.46004 22.1191 8.04408 22.2992 10.8042C22.4794 13.5643 21.5871 16.2874 19.8084 18.4057L24.8449 23.4423C25.0197 23.6171 25.118 23.8542 25.118 24.1014C25.118 24.3486 25.0197 24.5857 24.8449 24.7606ZM11.6017 20.3725C13.3532 20.3725 15.0654 19.8531 16.5217 18.88C17.9781 17.9069 19.1132 16.5238 19.7835 14.9056C20.4538 13.2874 20.6291 11.5067 20.2874 9.78885C19.9457 8.07097 19.1023 6.49299 17.8637 5.25447C16.6252 4.01594 15.0472 3.1725 13.3294 2.83079C11.6115 2.48908 9.83085 2.66446 8.21264 3.33474C6.59443 4.00502 5.21132 5.14011 4.23822 6.59646C3.26512 8.05281 2.74572 9.76502 2.74572 11.5166C2.74838 13.8645 3.68227 16.1155 5.3425 17.7757C7.00274 19.4359 9.25373 20.3698 11.6017 20.3725Z" fill="#4A8A51"/>
</svg>
