<svg width="51" height="50" viewBox="0 0 51 50" fill="none" xmlns="http://www.w3.org/2000/svg">
<circle cx="25.5" cy="25" r="25" fill="#A4A4A4"/>
<path d="M35.5 16H32.0344L30.3313 13.4453C30.24 13.3083 30.1163 13.196 29.9711 13.1183C29.826 13.0406 29.6639 13 29.4993 13H21.4993C21.3346 13 21.1726 13.0406 21.0274 13.1183C20.8823 13.196 20.7585 13.3083 20.6672 13.4453L18.9641 16H15.5C14.7046 16.0009 13.9421 16.3173 13.3797 16.8797C12.8173 17.4421 12.5009 18.2046 12.5 19V33C12.5009 33.7954 12.8173 34.5579 13.3797 35.1203C13.9421 35.6827 14.7046 35.9991 15.5 36H35.5C36.2954 35.9991 37.0579 35.6827 37.6203 35.1203C38.1827 34.5579 38.4991 33.7954 38.5 33V19C38.4991 18.2046 38.1827 17.4421 37.6203 16.8797C37.0579 16.3173 36.2954 16.0009 35.5 16V16ZM30 25.5C30 26.39 29.7361 27.26 29.2416 28.0001C28.7471 28.7401 28.0443 29.3169 27.2221 29.6575C26.3998 29.9981 25.495 30.0872 24.6221 29.9135C23.7492 29.7399 22.9474 29.3113 22.318 28.682C21.6887 28.0526 21.2601 27.2508 21.0865 26.3779C20.9128 25.505 21.0019 24.6002 21.3425 23.7779C21.6831 22.9557 22.2599 22.2529 22.9999 21.7584C23.74 21.2639 24.61 21 25.5 21C26.6931 21.0013 27.8369 21.4759 28.6805 22.3195C29.5241 23.1631 29.9987 24.3069 30 25.5Z" fill="#FFFDFA"/>
</svg>
