<svg width="30" height="30" viewBox="0 0 30 30" fill="none" xmlns="http://www.w3.org/2000/svg">
<path d="M26.9294 26.7606C26.7546 26.9354 26.5174 27.0336 26.2702 27.0336C26.0229 27.0336 25.7858 26.9354 25.611 26.7606L20.5744 21.724C18.456 23.5025 15.7328 24.3946 12.9727 24.2142C10.2126 24.0338 7.62867 22.7949 5.75977 20.7558C3.89086 18.7167 2.88127 16.0348 2.94151 13.2695C3.00176 10.5042 4.1272 7.86882 6.08314 5.91305C8.03908 3.95728 10.6745 2.83207 13.4399 2.77206C16.2052 2.71205 18.887 3.72188 20.9259 5.59096C22.9648 7.46004 24.2035 10.0441 24.3837 12.8042C24.5638 15.5643 23.6715 18.2874 21.8928 20.4057L26.9294 25.4423C27.1042 25.6171 27.2024 25.8542 27.2024 26.1014C27.2024 26.3486 27.1042 26.5857 26.9294 26.7606ZM13.6861 22.3725C15.4377 22.3725 17.1499 21.8531 18.6062 20.88C20.0626 19.9069 21.1977 18.5238 21.8679 16.9056C22.5382 15.2874 22.7136 13.5067 22.3719 11.7888C22.0302 10.071 21.1867 8.49299 19.9482 7.25447C18.7097 6.01594 17.1317 5.1725 15.4138 4.83079C13.696 4.48908 11.9153 4.66446 10.2971 5.33474C8.6789 6.00502 7.29579 7.14011 6.32269 8.59646C5.34959 10.0528 4.8302 11.765 4.8302 13.5166C4.83285 15.8645 5.76674 18.1155 7.42697 19.7757C9.08721 21.4359 11.3382 22.3698 13.6861 22.3725Z" fill="#595550"/>
</svg>
