<svg width="59" height="59" viewBox="0 0 59 59" fill="none" xmlns="http://www.w3.org/2000/svg">
<path d="M29.4985 35.0312C31.0259 35.0312 32.2642 33.793 32.2642 32.2656C32.2642 30.7382 31.0259 29.5 29.4985 29.5C27.9711 29.5 26.7329 30.7382 26.7329 32.2656C26.7329 33.793 27.9711 35.0312 29.4985 35.0312Z" fill="#A4A4A4"/>
<path d="M47.936 18.4375H39.6392V11.9844C39.6392 9.29491 38.5708 6.71561 36.669 4.81387C34.7673 2.91213 32.188 1.84375 29.4985 1.84375C26.8091 1.84375 24.2298 2.91213 22.328 4.81387C20.4263 6.71561 19.3579 9.29491 19.3579 11.9844V18.4375H11.061C10.0834 18.4386 9.14611 18.8275 8.45481 19.5188C7.76352 20.2101 7.37465 21.1474 7.37354 22.125V47.9375C7.37465 48.9151 7.76352 49.8524 8.45481 50.5437C9.14611 51.235 10.0834 51.6239 11.061 51.625H47.936C48.9137 51.6239 49.851 51.235 50.5423 50.5437C51.2336 49.8524 51.6224 48.9151 51.6235 47.9375V22.125C51.6224 21.1474 51.2336 20.2101 50.5423 19.5188C49.851 18.8275 48.9137 18.4386 47.936 18.4375V18.4375ZM31.3423 38.449V42.4062C31.3423 42.8952 31.148 43.3642 30.8023 43.71C30.4565 44.0557 29.9875 44.25 29.4985 44.25C29.0095 44.25 28.5406 44.0557 28.1948 43.71C27.849 43.3642 27.6548 42.8952 27.6548 42.4062V38.449C26.1693 38.0061 24.8929 37.0433 24.059 35.7367C23.225 34.4301 22.8892 32.867 23.113 31.3332C23.3368 29.7994 24.1052 28.3973 25.2777 27.3835C26.4502 26.3696 27.9485 25.8117 29.4985 25.8117C31.0486 25.8117 32.5469 26.3696 33.7194 27.3835C34.8919 28.3973 35.6603 29.7994 35.8841 31.3332C36.1078 32.867 35.772 34.4301 34.9381 35.7367C34.1041 37.0433 32.8277 38.0061 31.3423 38.449ZM35.9517 18.4375H23.0454V11.9844C23.0454 10.2729 23.7253 8.63152 24.9355 7.42133C26.1457 6.21113 27.7871 5.53125 29.4985 5.53125C31.21 5.53125 32.8514 6.21113 34.0616 7.42133C35.2718 8.63152 35.9517 10.2729 35.9517 11.9844V18.4375Z" fill="#A4A4A4"/>
</svg>
