<svg width="330" height="139" viewBox="0 0 330 139" fill="none" xmlns="http://www.w3.org/2000/svg">
<path d="M1.78032 56.933C3.44032 55.563 5.73032 55.803 7.49032 56.693C7.63032 53.683 10.0303 50.793 13.4103 51.003C15.6603 51.173 17.1403 53.023 17.7103 54.923C17.8103 55.273 17.9003 55.643 17.9503 56.013C19.8503 55.113 22.1603 55.113 23.9603 56.563C25.6803 57.993 25.7503 60.333 25.0503 62.193C24.1603 64.553 21.9803 66.903 19.3803 67.043C17.2603 67.243 7.53032 68.113 5.14032 66.993C4.32032 66.813 3.56032 66.483 2.90032 66.043C-0.159683 64.103 -1.20968 59.463 1.78032 56.933Z" fill="#4A8A51"/>
<path d="M54.2102 132.993C52.5802 134.673 50.4502 136.043 47.8102 137.103C45.2302 138.153 42.1502 138.763 38.5702 138.923C35.1002 139.083 32.0402 138.743 29.4102 137.893C26.8302 137.103 24.7002 135.943 23.0102 134.423C21.3302 132.953 20.0602 131.183 19.2202 129.133C18.3802 127.133 17.9602 124.973 17.9602 122.663C17.9602 120.503 18.3502 118.403 19.1402 116.343C19.9302 114.293 21.1102 112.443 22.6902 110.813C24.3202 109.183 26.3802 107.843 28.8502 106.783C31.3802 105.673 34.3502 105.023 37.7702 104.813C41.0902 104.603 44.0302 104.843 46.6102 105.523C49.1902 106.203 51.3502 107.233 53.0802 108.603C54.8702 109.973 56.2402 111.683 57.1902 113.733C58.1402 115.733 58.6602 117.993 58.7702 120.523C58.8702 122.893 58.5602 125.133 57.8202 127.233C57.1102 129.383 55.9002 131.303 54.2102 132.993ZM27.5202 77.4033C24.1502 77.5633 20.5502 77.7233 16.7002 77.8733C16.7002 78.8233 16.7002 79.9033 16.7002 81.1133C16.7002 82.3233 16.6702 83.5633 16.6202 84.8233C16.6202 86.0333 16.5902 87.2133 16.5402 88.3733C16.5402 89.4833 16.5402 90.4533 16.5402 91.2933C16.5402 91.9233 16.6702 92.3733 16.9302 92.6333C17.2502 92.8433 17.6402 92.9533 18.1102 92.9533C22.0102 92.7433 25.6602 92.5633 29.0902 92.4033C32.5102 92.2433 36.0602 92.0633 39.7502 91.8533C40.7502 91.8033 41.5702 92.1133 42.2002 92.8033C42.8802 93.4833 43.2802 94.6433 43.3802 96.2733C43.4802 97.9533 43.2002 99.2233 42.5102 100.063C41.8802 100.903 41.0602 101.403 40.0602 101.563C38.0602 101.883 35.8502 102.193 33.4302 102.513C31.0102 102.773 28.4302 103.043 25.6902 103.303C23.0102 103.563 20.2202 103.803 17.3202 104.013C14.4202 104.223 11.5302 104.353 8.63021 104.403C7.10021 104.453 5.87021 104.033 4.92021 103.143C3.97021 102.253 3.45021 101.013 3.34021 99.4333C3.18021 97.2733 3.02021 94.9633 2.87021 92.4833C2.77021 90.0133 2.66021 87.5133 2.55021 84.9833C2.50021 82.4033 2.47021 79.8533 2.47021 77.3233C2.47021 74.7933 2.47021 72.3733 2.47021 70.0633C2.47021 68.9033 2.71021 68.0633 3.18021 67.5333C3.65021 67.0033 4.50021 66.6933 5.71021 66.5833C11.2402 66.2133 16.7102 65.9533 22.1302 65.7933C27.6002 65.6333 32.9702 65.5033 38.2402 65.4033C39.1902 65.4033 39.9502 65.7733 40.5302 66.5133C41.1602 67.2533 41.5302 68.5433 41.6402 70.3833C41.7402 72.2233 41.5102 73.7033 40.9302 74.8033C40.3502 75.9133 39.4802 76.5133 38.3202 76.6233C34.5502 76.9233 30.9502 77.1933 27.5202 77.4033ZM60.2902 75.1933C60.3402 76.7233 60.3702 78.2433 60.3702 79.7733C61.1102 79.7733 61.7902 79.7733 62.4202 79.7733C63.1002 79.7733 63.6802 79.8033 64.1602 79.8533C65.6902 80.0133 66.7402 80.5133 67.3202 81.3533C67.9502 82.1933 68.2702 83.4333 68.2702 85.0633C68.2702 87.0133 67.9002 88.3533 67.1602 89.0933C66.4802 89.8333 65.5002 90.3033 64.2402 90.5133C63.7702 90.6133 63.1602 90.6933 62.4202 90.7533C61.7402 90.8033 61.0002 90.8333 60.2102 90.8333C60.1602 92.5133 60.1102 94.1533 60.0502 95.7333C60.0002 97.2633 59.9202 98.7333 59.8102 100.153C59.7102 101.313 59.3902 102.233 58.8602 102.913C58.3902 103.543 57.6202 104.073 56.5702 104.493C56.2502 104.593 55.8102 104.703 55.2302 104.813C54.6502 104.863 54.0202 104.913 53.3302 104.973C52.6502 104.973 51.9902 104.943 51.3602 104.893C50.7302 104.793 50.2302 104.653 49.8602 104.503C49.1802 104.183 48.5702 103.713 48.0402 103.083C47.5702 102.403 47.3302 101.533 47.3302 100.473C47.2302 96.0033 47.1202 91.2333 47.0102 86.1833C46.9702 81.1133 47.0002 75.9533 47.1102 70.6833C47.1102 68.6833 47.9302 67.3633 49.5602 66.7333C50.8202 66.2633 52.2702 66.0533 53.9002 66.1033C55.5302 66.1033 56.9502 66.3433 58.1602 66.8133C59.0002 67.1333 59.5602 67.5733 59.8202 68.1533C60.1402 68.7333 60.2902 69.5533 60.2902 70.6033C60.2902 72.1333 60.2902 73.6633 60.2902 75.1933ZM38.4202 129.433C41.0502 129.333 43.0302 128.513 44.3402 126.983C45.7102 125.513 46.3102 123.513 46.1602 120.983C46.0002 118.663 45.2102 116.953 43.7902 115.853C42.3702 114.693 40.5502 114.173 38.3402 114.273C35.9202 114.373 34.0002 115.193 32.5802 116.723C31.1602 118.193 30.5002 120.013 30.6102 122.173C30.7102 124.383 31.4502 126.173 32.8202 127.543C34.1802 128.913 36.0502 129.543 38.4202 129.433ZM125.9 96.9033C127.06 96.9033 127.8 97.3733 128.11 98.3233C128.43 99.2133 128.58 100.193 128.58 101.243C128.58 102.293 128.4 103.323 128.03 104.323C127.66 105.323 126.98 105.853 125.98 105.903C122.19 106.163 117.98 106.403 113.35 106.613C108.77 106.773 104.08 106.933 99.2902 107.083C94.5002 107.243 89.7602 107.403 85.0802 107.553C80.4502 107.653 76.1802 107.733 72.2902 107.793C71.7102 107.793 71.2402 107.633 70.8702 107.323C70.5502 107.003 70.3202 106.613 70.1602 106.143C70.0002 105.613 69.9002 105.093 69.8402 104.563C69.7902 103.983 69.7602 103.453 69.7602 102.983C69.7602 102.453 69.7902 101.933 69.8402 101.403C69.8902 100.823 70.0002 100.323 70.1602 99.9033C70.3702 99.4333 70.6302 99.0333 70.9502 98.7233C71.3202 98.4033 71.7902 98.2533 72.3702 98.2533C75.2602 98.1533 78.3202 98.0433 81.5302 97.9333C84.7402 97.8333 87.9802 97.7233 91.2402 97.6133C94.5602 97.5133 97.8702 97.4033 101.19 97.2933C104.51 97.1933 107.74 97.1133 110.9 97.0533C111 94.3133 111.14 91.2333 111.29 87.8133C111.45 84.3933 111.61 80.9933 111.76 77.6233C110.55 77.6233 108.97 77.6233 107.02 77.6233C105.07 77.6233 102.94 77.6233 100.62 77.6233C98.3602 77.6233 95.9902 77.6233 93.5102 77.6233C91.0402 77.5733 88.6402 77.5433 86.3202 77.5433C84.0602 77.5433 81.9502 77.5433 80.0002 77.5433C78.1002 77.4933 76.5502 77.4433 75.3402 77.3833C74.4402 77.3333 73.6002 76.9133 72.8102 76.1233C72.0202 75.2833 71.6502 73.8033 71.7002 71.7033C71.7502 69.9633 72.0402 68.7033 72.5702 67.9133C73.1002 67.0733 74.1202 66.5933 75.6502 66.4933C77.3302 66.4433 79.4102 66.3933 81.8902 66.3333C84.4202 66.2333 87.1302 66.1533 90.0202 66.0933C92.9702 66.0433 95.9702 65.9933 99.0202 65.9333C102.13 65.8833 105.1 65.8533 107.94 65.8533C110.83 65.8033 113.49 65.7733 115.92 65.7733C118.39 65.7233 120.42 65.6933 122 65.6933C122.79 65.6933 123.42 66.0133 123.9 66.6433C124.43 67.2733 124.69 68.1433 124.69 69.2533C124.69 71.2033 124.61 73.4433 124.45 75.9633C124.34 78.4333 124.19 80.9633 123.98 83.5433C123.82 86.0733 123.61 88.5133 123.35 90.8833C123.09 93.2533 122.82 95.2533 122.56 96.8833H125.9V96.9033ZM122.03 132.913C121.5 133.753 120.85 134.233 120.06 134.333C118.22 134.543 115.74 134.723 112.64 134.883C109.53 135.043 106.22 135.173 102.69 135.273C99.1602 135.433 95.6102 135.563 92.0302 135.663C88.5002 135.763 85.4002 135.843 82.7102 135.903C79.1802 136.003 77.2102 134.223 76.7902 130.533C76.7402 130.063 76.6802 129.243 76.6302 128.083C76.5802 126.923 76.5202 125.633 76.4702 124.213C76.4202 122.843 76.3602 121.473 76.3102 120.103C76.2602 118.683 76.2002 117.443 76.1502 116.393C76.1002 113.923 76.9402 112.423 78.6802 111.893C79.2102 111.733 79.8102 111.633 80.5002 111.573C81.2402 111.473 81.9502 111.393 82.6302 111.333C83.3702 111.283 84.0502 111.253 84.6802 111.253C85.3102 111.253 85.8602 111.283 86.3402 111.333C87.6602 111.433 88.5502 111.803 89.0202 112.443C89.4902 113.023 89.7302 113.993 89.7302 115.363C89.7302 115.683 89.7302 116.283 89.7302 117.183C89.7302 118.023 89.7302 118.923 89.7302 119.863C89.7302 120.753 89.7302 121.603 89.7302 122.393C89.7302 123.183 89.7302 123.683 89.7302 123.893C89.7802 124.843 90.1502 125.313 90.8402 125.313C92.4202 125.313 94.5002 125.283 97.0802 125.233C99.7102 125.233 102.42 125.203 105.21 125.153C108 125.103 110.68 125.053 113.26 124.993C115.89 124.943 118 124.913 119.58 124.913C121.48 124.913 122.5 126.283 122.66 129.023C122.77 130.833 122.56 132.123 122.03 132.913Z" fill="#F27808"/>
<path d="M180.99 79.5327C180.89 80.7427 180.75 82.1127 180.6 83.6427C181.44 83.6427 182.26 83.6427 183.05 83.6427C183.84 83.6427 184.6 83.6127 185.34 83.5627C186.55 83.5127 187.47 83.7227 188.1 84.1927C188.73 84.6127 189.1 85.5627 189.21 87.0327C189.32 88.8727 189.03 90.0627 188.34 90.5827C187.71 91.0527 186.79 91.3427 185.58 91.4527C184.47 91.5027 182.84 91.5827 180.68 91.6927C178.52 91.7927 176.02 91.9027 173.18 92.0127C170.39 92.0627 167.39 92.1427 164.18 92.2527C161.02 92.3527 157.89 92.4627 154.78 92.5727C151.73 92.6727 148.83 92.7527 146.09 92.8127C143.35 92.8627 141.01 92.9127 139.06 92.9727C138.48 92.9727 137.95 92.9727 137.48 92.9727C137.06 92.9727 136.66 92.8727 136.3 92.6527C135.98 92.3927 135.72 92.0227 135.51 91.5427C135.35 91.0127 135.25 90.2527 135.19 89.2527C135.14 87.4627 135.37 86.2827 135.9 85.7027C136.43 85.1227 137.35 84.7827 138.66 84.6727C140.45 84.6227 142.58 84.5427 145.06 84.4327C144.9 83.0627 144.74 81.6927 144.59 80.3227C144.49 78.9027 144.41 77.5627 144.35 76.2927C142.98 76.2927 141.69 76.2927 140.48 76.2927C139.27 76.2427 138.22 76.1927 137.32 76.1327C136.16 76.0827 135.24 75.7127 134.56 75.0227C133.88 74.2827 133.56 72.9127 133.61 70.9127C133.61 67.2827 134.87 65.4427 137.4 65.3827C139.24 65.3327 141.45 65.3027 144.03 65.3027C146.66 65.2527 149.48 65.2227 152.48 65.2227C155.53 65.2227 158.67 65.2227 161.88 65.2227C165.14 65.2227 168.33 65.2227 171.43 65.2227C174.54 65.2227 177.46 65.2527 180.19 65.3027C182.98 65.3027 185.43 65.3027 187.53 65.3027C189.9 65.3027 191.08 66.9327 191.08 70.2027C191.13 72.1527 190.79 73.4627 190.05 74.1527C189.37 74.8327 188.42 75.2327 187.21 75.3327C186.58 75.3827 185.76 75.4327 184.76 75.4927C183.76 75.5427 182.58 75.5927 181.21 75.6527C181.18 76.9827 181.1 78.2727 180.99 79.5327ZM153.67 128.173C158.88 128.173 164.04 128.143 169.15 128.093C174.26 128.043 179.39 128.013 184.55 128.013C185.6 128.013 186.29 128.273 186.6 128.803C186.92 129.333 187.07 130.143 187.07 131.253C187.07 131.573 187.04 131.963 186.99 132.433C186.99 132.963 186.89 133.483 186.67 134.013C186.51 134.543 186.25 134.983 185.88 135.353C185.56 135.723 185.09 135.903 184.46 135.903C178.14 136.003 171.88 136.083 165.67 136.143C159.46 136.243 153.25 136.353 147.03 136.463C144.77 136.463 143.16 135.993 142.21 135.043C141.32 134.153 140.82 132.883 140.71 131.253C140.61 129.623 140.5 127.993 140.39 126.353C140.29 124.773 140.23 123.173 140.23 121.533C140.23 120.853 140.34 120.353 140.55 120.033C140.76 119.713 141.16 119.533 141.73 119.483C147.1 119.273 152.44 119.063 157.76 118.853C163.08 118.643 168.45 118.403 173.87 118.143C173.87 117.673 173.87 117.253 173.87 116.883C173.92 116.463 173.95 115.993 173.95 115.463C168.48 115.563 163.03 115.703 157.6 115.853C152.18 115.953 146.73 116.063 141.25 116.173C140.36 116.173 139.72 115.853 139.35 115.223C138.98 114.543 138.8 113.513 138.8 112.143C138.8 111.303 138.91 110.463 139.12 109.613C139.38 108.773 140.07 108.323 141.17 108.273C144.91 108.173 148.57 108.063 152.15 107.953C155.73 107.793 159.28 107.663 162.81 107.563C166.34 107.403 169.89 107.273 173.47 107.173C177.05 107.013 180.71 106.883 184.45 106.783C185.71 106.783 186.35 107.603 186.35 109.233C186.3 111.233 186.22 113.233 186.11 115.233C186.06 117.183 185.95 119.153 185.79 121.153C185.63 123.573 184.42 124.813 182.16 124.863L153.65 125.893V128.173H153.67ZM191.65 101.643C191.28 102.483 190.6 102.933 189.6 102.983C185.81 103.243 181.6 103.483 176.97 103.693C172.39 103.853 167.71 104.013 162.91 104.163C158.12 104.323 153.38 104.483 148.7 104.633C144.07 104.733 139.8 104.813 135.91 104.873C135.33 104.873 134.86 104.743 134.49 104.483C134.17 104.163 133.94 103.803 133.78 103.373C133.62 102.953 133.52 102.483 133.46 101.953C133.41 101.423 133.38 100.923 133.38 100.453C133.38 99.4027 133.51 98.4527 133.77 97.6127C134.03 96.7727 134.77 96.3227 135.98 96.2727C140.14 96.1127 144.53 95.9527 149.17 95.8027C153.86 95.6427 158.54 95.5127 163.23 95.4127C167.92 95.2527 172.5 95.1527 176.97 95.0927C181.5 94.9927 185.68 94.9327 189.52 94.9327C190.68 94.9327 191.42 95.3027 191.73 96.0427C192.05 96.7827 192.2 97.6727 192.2 98.7227C192.2 99.7727 192.02 100.743 191.65 101.643ZM162.75 84.0327C164.96 83.9827 167.17 83.9327 169.38 83.8727C169.38 82.4527 169.38 81.1327 169.38 79.9227C169.38 78.6627 169.41 77.3427 169.46 75.9727C167.3 76.0227 165.09 76.0727 162.83 76.1327C160.62 76.1827 158.41 76.2127 156.2 76.2127C156.25 77.6827 156.25 79.0327 156.2 80.2427C156.2 81.4027 156.2 82.6927 156.2 84.1127C158.41 84.0627 160.59 84.0327 162.75 84.0327ZM245.32 98.0127C245.27 101.963 245.16 105.963 245 110.013C244.89 114.013 244.71 118.253 244.45 122.723C244.34 124.303 243.74 125.543 242.63 126.433C241.58 127.323 240.18 127.723 238.44 127.613C236.81 127.513 235.65 127.003 234.97 126.113C234.29 125.223 233.92 123.903 233.86 122.163C233.6 113.693 233.41 105.213 233.31 96.7327C233.2 88.2027 233.23 79.6027 233.39 70.9127C233.39 69.4927 233.78 68.3627 234.57 67.5127C235.36 66.6727 236.91 66.2227 239.23 66.1727C241.55 66.1227 243.15 66.4927 244.05 67.2827C244.94 68.0727 245.39 69.1227 245.39 70.4427V86.7927C246.28 86.7427 247.1 86.7427 247.84 86.7927C248.63 86.7927 249.39 86.7927 250.13 86.7927C250.23 84.2627 250.29 81.6627 250.29 78.9727C250.34 76.2927 250.42 73.4727 250.53 70.5227C250.53 69.1527 250.92 68.0727 251.71 67.2827C252.5 66.4427 254.03 66.0227 256.29 66.0227C258.76 66.0227 260.45 66.4727 261.34 67.3627C262.23 68.2527 262.66 69.3127 262.6 70.5227C262.6 75.2027 262.57 79.7627 262.52 84.1827C262.47 88.5527 262.36 92.8927 262.2 97.2127C262.04 101.533 261.81 105.903 261.49 110.323C261.23 114.743 260.86 119.353 260.38 124.143C260.27 125.673 259.7 126.883 258.64 127.773C257.64 128.663 256.27 129.063 254.53 128.953C252.95 128.853 251.82 128.343 251.13 127.453C250.45 126.613 250.08 125.323 250.02 123.583C249.91 118.743 249.86 114.263 249.86 110.163C249.86 106.003 249.89 101.953 249.94 98.0027H245.32V98.0127ZM213.18 90.4327C214.76 90.2227 216.23 90.0427 217.6 89.8827C217.55 88.3027 217.49 86.6227 217.44 84.8327C217.39 83.0427 217.31 81.3627 217.2 79.7827C214.67 79.8327 212.09 79.8827 209.46 79.9427C206.83 79.9927 204.3 79.9727 201.88 79.8627C201.14 79.8627 200.51 79.7827 199.98 79.6227C199.45 79.4627 199.01 79.2027 198.64 78.8327C198.32 78.4127 198.09 77.8627 197.93 77.1727C197.77 76.4927 197.69 75.5627 197.69 74.4127C197.74 71.9927 198.03 70.4427 198.56 69.7527C199.14 69.0127 200.09 68.6227 201.4 68.5727C203.3 68.5227 205.4 68.4427 207.72 68.3327C210.04 68.2327 212.35 68.1527 214.67 68.0927C216.99 68.0427 219.25 68.0127 221.46 68.0127C223.67 67.9627 225.62 67.9327 227.3 67.9327C228.51 67.9327 229.12 68.5927 229.12 69.9027C229.22 74.0127 229.3 78.2227 229.36 82.5327C229.41 86.8527 229.41 91.0627 229.36 95.1627C229.36 96.4827 229.07 97.4527 228.49 98.0827C227.96 98.7127 227.04 99.1127 225.73 99.2627C224.68 99.4227 223.47 99.5827 222.1 99.7327C220.73 99.8327 219.31 99.9727 217.84 100.123C216.42 100.283 215.02 100.443 213.65 100.593C212.33 100.693 211.2 100.773 210.25 100.833C210.25 101.833 210.22 103.093 210.17 104.623C210.17 106.153 210.17 107.443 210.17 108.493C210.17 109.173 210.3 109.653 210.56 109.913C210.88 110.173 211.4 110.283 212.14 110.233C213.67 110.183 215.03 110.133 216.25 110.073C217.51 109.973 218.7 109.893 219.8 109.833C220.96 109.783 222.09 109.733 223.2 109.673C224.36 109.623 225.57 109.573 226.83 109.513C228.04 109.463 228.91 109.693 229.44 110.223C230.02 110.753 230.36 111.773 230.47 113.303C230.57 115.203 230.34 116.593 229.76 117.493C229.18 118.333 228.44 118.813 227.55 118.913C223.81 119.493 220.29 119.943 216.97 120.253C213.71 120.573 210.07 120.753 206.07 120.803C204.28 120.853 202.88 120.563 201.89 119.933C200.94 119.303 200.28 118.353 199.92 117.093C199.66 116.143 199.39 114.833 199.13 113.143C198.92 111.463 198.71 109.613 198.5 107.613C198.29 105.563 198.11 103.453 197.95 101.293C197.84 99.0827 197.77 97.0027 197.71 95.0527C197.71 93.4227 198.53 92.4427 200.16 92.1327C201.32 91.9227 202.61 91.7427 204.03 91.5827C205.5 91.3727 207 91.1627 208.53 90.9527C210.1 90.7727 211.65 90.5827 213.18 90.4327ZM310.89 83.6327C312.63 83.5827 314.18 83.5527 315.55 83.5527C315.6 81.5527 315.63 79.5227 315.63 77.4727C315.68 75.4227 315.76 73.2927 315.87 71.0727C315.92 68.9627 316.74 67.5727 318.32 66.8927C319.58 66.3127 321.03 66.0527 322.66 66.1027C324.29 66.1027 325.71 66.3927 326.92 66.9727C327.76 67.3927 328.32 67.9227 328.58 68.5527C328.9 69.1327 329.05 69.9527 329.05 71.0027C329.15 79.7927 329.02 88.6927 328.66 97.6927C328.29 106.643 327.66 115.513 326.76 124.303C326.66 125.463 326.23 126.383 325.5 127.063C324.82 127.803 324.03 128.323 323.13 128.643C322.55 128.853 321.73 128.933 320.68 128.883C319.63 128.833 318.73 128.673 318 128.413C317.32 128.153 316.71 127.703 316.18 127.073C315.71 126.493 315.47 125.673 315.47 124.623C315.42 119.413 315.39 114.383 315.39 109.543C315.39 104.703 315.42 99.8027 315.47 94.8527C314.05 94.9027 312.5 94.9527 310.81 95.0127C309.13 95.0127 307.52 95.0427 305.99 95.0927C304.46 95.1427 303.12 95.1727 301.96 95.1727C300.8 95.1727 300.01 95.1427 299.59 95.0927C298.06 94.9927 296.98 94.5127 296.35 93.6727C295.77 92.8327 295.43 91.5927 295.32 89.9627C295.22 88.0127 295.5 86.6427 296.19 85.8527C296.93 85.0627 297.93 84.5327 299.19 84.2727C299.61 84.2227 300.45 84.1727 301.72 84.1127C302.98 84.0127 304.4 83.9327 305.98 83.8727C307.57 83.7727 309.2 83.6927 310.89 83.6327ZM309.78 106.693C310.52 107.273 310.94 108.593 311.04 110.643C311.04 112.323 310.7 113.513 310.01 114.193C309.38 114.823 308.64 115.193 307.8 115.303C305.9 115.623 303.77 115.933 301.4 116.253C299.03 116.513 296.56 116.783 293.98 117.043C291.4 117.253 288.79 117.463 286.16 117.673C283.53 117.833 280.95 117.933 278.42 117.993C276.31 117.993 274.68 117.493 273.52 116.493C272.41 115.443 271.78 114.073 271.62 112.383C271.57 111.913 271.46 110.803 271.3 109.063C271.2 107.323 271.06 105.243 270.91 102.823C270.75 100.403 270.57 97.7927 270.36 95.0027C270.15 92.1627 269.97 89.4527 269.81 86.8727C269.65 84.2927 269.52 81.9527 269.42 79.8427C269.32 77.7327 269.26 76.1827 269.26 75.1827C269.26 74.3427 269.31 73.5727 269.42 72.8927C269.58 72.2127 269.89 71.6327 270.37 71.1527C270.9 70.6827 271.63 70.3127 272.58 70.0427C273.53 69.7227 274.82 69.4927 276.45 69.3327C278.66 69.1227 280.37 69.4327 281.58 70.2827C282.84 71.1227 283.5 72.2827 283.55 73.7527C283.76 79.1227 283.92 84.4427 284.02 89.7027C284.18 94.9627 284.34 100.253 284.49 105.573C284.49 106.463 284.86 106.913 285.6 106.913C287.18 106.813 288.86 106.733 290.65 106.673C292.49 106.573 294.36 106.493 296.26 106.433C298.16 106.333 300.02 106.223 301.87 106.113C303.77 106.013 305.58 105.903 307.32 105.793C308.28 105.823 309.1 106.113 309.78 106.693Z" fill="#4A8A51"/>
<path d="M63.1002 30.3829C62.4002 31.1028 61.4902 31.6929 60.3602 32.1429C59.2502 32.5929 57.9302 32.8528 56.4002 32.9228C54.9102 32.9928 53.6002 32.8429 52.4702 32.4829C51.3602 32.1429 50.4502 31.6529 49.7302 30.9929C49.0102 30.3629 48.4702 29.6028 48.1102 28.7229C47.7502 27.8629 47.5702 26.9429 47.5702 25.9529C47.5702 25.0329 47.7402 24.1229 48.0802 23.2429C48.4202 22.3629 48.9302 21.5729 49.6002 20.8729C50.3002 20.1728 51.1802 19.6028 52.2402 19.1429C53.3202 18.6729 54.6002 18.3829 56.0602 18.2929C57.4802 18.2029 58.7402 18.3029 59.8502 18.5929C60.9602 18.8829 61.8802 19.3229 62.6202 19.9129C63.3902 20.5029 63.9702 21.2329 64.3802 22.1129C64.7902 22.9729 65.0102 23.9429 65.0602 25.0229C65.1102 26.0429 64.9702 26.9929 64.6502 27.9029C64.3402 28.8429 63.8302 29.6629 63.1002 30.3829ZM51.6702 6.56285C50.2302 6.63285 48.6802 6.70285 47.0302 6.76285C47.0302 7.17285 47.0302 7.63285 47.0302 8.15285C47.0302 8.67285 47.0202 9.20285 47.0002 9.74285C47.0002 10.2629 46.9902 10.7729 46.9702 11.2629C46.9702 11.7329 46.9702 12.1529 46.9702 12.5129C46.9702 12.7829 47.0302 12.9729 47.1402 13.0929C47.2802 13.1829 47.4402 13.2329 47.6502 13.2329C49.3202 13.1429 50.8902 13.0629 52.3502 12.9929C53.8202 12.9229 55.3402 12.8429 56.9202 12.7529C57.3502 12.7329 57.7002 12.8629 57.9702 13.1629C58.2602 13.4529 58.4302 13.9529 58.4802 14.6529C58.5302 15.3729 58.4002 15.9129 58.1102 16.2729C57.8402 16.6329 57.4902 16.8529 57.0602 16.9129C56.2002 17.0529 55.2602 17.1829 54.2202 17.3229C53.1802 17.4329 52.0802 17.5529 50.9002 17.6629C49.7502 17.7729 48.5502 17.8729 47.3102 17.9629C46.0702 18.0529 44.8302 18.1129 43.5902 18.1329C42.9402 18.1529 42.4102 17.9729 42.0002 17.5929C41.5902 17.2129 41.3702 16.6829 41.3202 16.0029C41.2502 15.0829 41.1802 14.0829 41.1202 13.0229C41.0702 11.9629 41.0302 10.8929 40.9802 9.81285C40.9602 8.70285 40.9502 7.61285 40.9502 6.53285C40.9502 5.45285 40.9502 4.41285 40.9502 3.42285C40.9502 2.92285 41.0502 2.56285 41.2502 2.34285C41.4502 2.11285 41.8102 1.98285 42.3302 1.93285C44.7002 1.77285 47.0502 1.66285 49.3702 1.59285C51.7202 1.52285 54.0202 1.47285 56.2702 1.42285C56.6802 1.42285 57.0002 1.58285 57.2502 1.89285C57.5202 2.21285 57.6802 2.76285 57.7202 3.55285C57.7702 4.34285 57.6602 4.97285 57.4202 5.45285C57.1702 5.92285 56.8002 6.18285 56.3002 6.23285C54.6802 6.35285 53.1302 6.47285 51.6702 6.56285ZM65.7102 5.61285C65.7302 6.26285 65.7402 6.92285 65.7402 7.57285C66.0602 7.57285 66.3502 7.57285 66.6202 7.57285C66.9102 7.57285 67.1602 7.58285 67.3602 7.60285C68.0102 7.67285 68.4702 7.88285 68.7102 8.24285C68.9802 8.60285 69.1202 9.13285 69.1202 9.83285C69.1202 10.6629 68.9602 11.2429 68.6502 11.5629C68.3602 11.8829 67.9402 12.0829 67.4002 12.1729C67.2002 12.2229 66.9402 12.2529 66.6202 12.2729C66.3302 12.2929 66.0102 12.3029 65.6702 12.3029C65.6502 13.0229 65.6202 13.7229 65.6002 14.4029C65.5802 15.0529 65.5402 15.6929 65.5002 16.3029C65.4502 16.8029 65.3202 17.1929 65.0902 17.4829C64.8902 17.7529 64.5602 17.9829 64.1102 18.1629C63.9702 18.2129 63.7802 18.2529 63.5302 18.3029C63.2802 18.3229 63.0102 18.3528 62.7202 18.3729C62.4302 18.3729 62.1402 18.3629 61.8702 18.3429C61.6002 18.2929 61.3802 18.2429 61.2302 18.1729C60.9402 18.0329 60.6802 17.8329 60.4502 17.5629C60.2502 17.2729 60.1502 16.8928 60.1502 16.4429C60.1002 14.5229 60.0602 12.4829 60.0102 10.3129C60.0002 8.15285 60.0102 5.94285 60.0602 3.68285C60.0602 2.82285 60.4102 2.26285 61.1102 1.99285C61.6502 1.79285 62.2702 1.70285 62.9702 1.72285C63.6702 1.72285 64.2802 1.82285 64.8002 2.02285C65.1602 2.16285 65.4002 2.35285 65.5102 2.60285C65.6502 2.85285 65.7102 3.20285 65.7102 3.65285C65.7102 4.30285 65.7102 4.95285 65.7102 5.61285ZM56.3402 28.8629C57.4702 28.8129 58.3102 28.4729 58.8802 27.8129C59.4702 27.1829 59.7302 26.3229 59.6602 25.2429C59.5902 24.2529 59.2502 23.5128 58.6402 23.0429C58.0302 22.5429 57.2502 22.3228 56.3002 22.3629C55.2602 22.4128 54.4402 22.7529 53.8302 23.4129C53.2202 24.0429 52.9402 24.8229 52.9802 25.7429C53.0302 26.6929 53.3402 27.4529 53.9302 28.0429C54.5202 28.6329 55.3202 28.9029 56.3402 28.8629ZM132.56 14.9229C133.06 14.9229 133.37 15.1229 133.51 15.5329C133.65 15.9129 133.71 16.3329 133.71 16.7829C133.71 17.2329 133.63 17.6729 133.47 18.1029C133.31 18.5329 133.02 18.7528 132.59 18.7829C130.97 18.8929 129.16 18.9929 127.18 19.0829C125.22 19.1529 123.21 19.2229 121.16 19.2829C119.11 19.3528 117.08 19.4229 115.07 19.4829C113.08 19.5329 111.26 19.5629 109.59 19.5829C109.34 19.5829 109.14 19.5128 108.98 19.3829C108.84 19.2429 108.74 19.0828 108.68 18.8729C108.61 18.6429 108.57 18.4228 108.54 18.1929C108.52 17.9429 108.51 17.7229 108.51 17.5129C108.51 17.2829 108.52 17.0629 108.54 16.8329C108.56 16.5829 108.61 16.3729 108.68 16.1929C108.77 15.9929 108.88 15.8229 109.02 15.6829C109.18 15.5429 109.38 15.4829 109.63 15.4829C110.87 15.4329 112.18 15.3929 113.56 15.3429C114.94 15.2929 116.32 15.2529 117.72 15.2029C119.14 15.1529 120.56 15.1129 121.98 15.0629C123.4 15.0129 124.79 14.9829 126.14 14.9629C126.19 13.7929 126.24 12.4729 126.31 11.0029C126.38 9.53285 126.45 8.08285 126.51 6.63285C125.99 6.63285 125.31 6.63285 124.48 6.63285C123.65 6.63285 122.73 6.63285 121.74 6.63285C120.77 6.63285 119.75 6.63285 118.69 6.63285C117.63 6.61285 116.6 6.60285 115.61 6.60285C114.64 6.60285 113.74 6.60285 112.9 6.60285C112.09 6.58285 111.42 6.55285 110.9 6.53285C110.52 6.51285 110.16 6.33285 109.82 5.99285C109.48 5.63285 109.32 5.00285 109.35 4.09285C109.37 3.35285 109.5 2.80285 109.72 2.47285C109.95 2.11285 110.39 1.91285 111.04 1.86285C111.76 1.84285 112.65 1.81285 113.71 1.79285C114.79 1.74285 115.95 1.71285 117.2 1.69285C118.46 1.67285 119.75 1.64285 121.06 1.62285C122.39 1.60285 123.67 1.59285 124.88 1.59285C126.12 1.57285 127.26 1.56285 128.3 1.56285C129.36 1.54285 130.23 1.53285 130.91 1.53285C131.25 1.53285 131.52 1.67285 131.72 1.94285C131.95 2.21285 132.06 2.58285 132.06 3.06285C132.06 3.89285 132.03 4.85285 131.96 5.94285C131.91 7.00285 131.85 8.08285 131.76 9.19285C131.69 10.2729 131.6 11.3229 131.49 12.3429C131.38 13.3629 131.26 14.2129 131.15 14.9129H132.56V14.9229ZM130.9 30.3529C130.67 30.7129 130.39 30.9129 130.05 30.9629C129.26 31.0529 128.2 31.1329 126.87 31.2029C125.54 31.2729 124.12 31.3229 122.61 31.3729C121.1 31.4429 119.58 31.4929 118.04 31.5429C116.53 31.5928 115.2 31.6229 114.05 31.6429C112.54 31.6929 111.69 30.9229 111.51 29.3429C111.49 29.1429 111.46 28.7929 111.44 28.2929C111.42 27.7929 111.39 27.2429 111.37 26.6329C111.35 26.0429 111.32 25.4629 111.3 24.8729C111.28 24.2628 111.25 23.7329 111.23 23.2829C111.21 22.2229 111.57 21.5829 112.31 21.3529C112.54 21.2829 112.8 21.2429 113.09 21.2129C113.41 21.1629 113.71 21.1329 114 21.1129C114.32 21.0928 114.61 21.0829 114.88 21.0829C115.15 21.0829 115.39 21.0928 115.59 21.1129C116.15 21.1628 116.54 21.3129 116.74 21.5829C116.94 21.8329 117.04 22.2529 117.04 22.8329C117.04 22.9729 117.04 23.2229 117.04 23.6129C117.04 23.9729 117.04 24.3529 117.04 24.7629C117.04 25.1429 117.04 25.5029 117.04 25.8429C117.04 26.1829 117.04 26.3929 117.04 26.4829C117.06 26.8929 117.22 27.0929 117.51 27.0929C118.19 27.0929 119.08 27.0829 120.18 27.0629C121.31 27.0629 122.47 27.0529 123.67 27.0329C124.87 27.0128 126.02 26.9829 127.12 26.9629C128.25 26.9429 129.15 26.9329 129.83 26.9329C130.64 26.9329 131.08 27.5229 131.15 28.6929C131.22 29.4629 131.13 30.0129 130.9 30.3529Z" fill="#F27808"/>
<path d="M95.01 20.2626C94.94 20.9126 94.75 21.3426 94.43 21.5526C94.14 21.7526 93.75 21.8426 93.28 21.8226C92.78 21.8026 92.4 21.6826 92.13 21.4826C91.86 21.2826 91.71 20.8426 91.69 20.1626C91.69 19.8226 91.68 19.2926 91.66 18.5726C91.66 17.8526 91.66 17.0226 91.66 16.1026C91.68 15.1826 91.69 14.1726 91.69 13.0926C91.69 12.0126 91.69 10.9126 91.69 9.81264C91.71 8.70264 91.72 7.63264 91.72 6.60264C91.74 5.56264 91.77 4.63264 91.79 3.79264C91.79 3.18264 91.93 2.75264 92.2 2.50264C92.47 2.23264 92.94 2.09264 93.62 2.09264C94.82 2.09264 95.4 2.69264 95.38 3.88264C95.36 4.60264 95.35 5.46264 95.35 6.45264C95.35 7.42264 95.34 8.45264 95.32 9.53264C95.3 10.5926 95.27 11.6726 95.25 12.7826C95.25 13.8926 95.24 14.9226 95.22 15.8926C95.2 16.8626 95.16 17.7326 95.12 18.5026C95.09 19.2726 95.06 19.8626 95.01 20.2626ZM95.38 29.3026C95.38 29.7726 95.24 30.1126 94.97 30.3226C94.72 30.5526 94.44 30.6726 94.12 30.6926C92.99 30.7826 91.78 30.8626 90.5 30.9326C89.24 31.0026 87.95 31.0526 86.64 31.1026C85.33 31.1526 84.05 31.1826 82.78 31.2026C81.54 31.2526 80.4 31.2726 79.36 31.2726C78.82 31.2726 78.39 31.0826 78.07 30.6926C77.75 30.3326 77.57 29.8726 77.53 29.3026C77.48 28.6226 77.44 27.9926 77.39 27.4026C77.37 26.8426 77.34 26.2826 77.32 25.7426C77.32 25.2026 77.31 24.6626 77.29 24.1226C77.29 23.5626 77.29 22.9526 77.29 22.2926C77.29 21.7726 77.4 21.4226 77.63 21.2426C77.88 21.0626 78.33 20.9526 78.98 20.9026C79.63 20.8526 80.12 20.9226 80.44 21.1026C80.76 21.2826 80.93 21.6326 80.95 22.1526C80.95 22.5326 80.95 22.9826 80.95 23.5026C80.97 24.0226 80.98 24.5526 80.98 25.0926C80.98 25.6326 80.98 26.1426 80.98 26.6126C81 27.1126 81.01 27.5126 81.01 27.8326C81.01 28.1026 81.12 28.2426 81.35 28.2426C82.21 28.2226 83.19 28.1826 84.29 28.1426C85.42 28.1226 86.56 28.0826 87.71 28.0426C88.88 27.9926 90.02 27.9526 91.13 27.9026C92.24 27.8826 93.22 27.8726 94.07 27.8726C94.52 27.8726 94.85 27.9726 95.05 28.1726C95.28 28.4126 95.38 28.7826 95.38 29.3026ZM80.19 8.69264C80.21 9.39264 80.22 10.0226 80.22 10.5926C81.51 11.6126 82.76 12.4926 83.98 13.2326C85.2 13.9726 86.32 14.7326 87.33 15.5026C87.65 15.7526 87.84 16.0526 87.91 16.4126C88 16.7526 87.91 17.1126 87.64 17.4926C87.37 17.9226 87.09 18.2126 86.79 18.3726C86.52 18.5326 86.19 18.4926 85.81 18.2726C85.34 17.9826 84.79 17.6526 84.19 17.2926C83.58 16.9326 82.96 16.5526 82.33 16.1426C81.7 15.7126 81.07 15.2826 80.43 14.8526C79.82 14.4026 79.25 13.9626 78.7 13.5326C77.37 15.0026 76.14 16.2526 75.01 17.2926C73.9 18.3326 72.93 19.2026 72.1 19.9026C71.76 20.1926 71.39 20.2926 70.98 20.2026C70.57 20.1126 70.22 19.8826 69.93 19.5226C69.66 19.1826 69.55 18.8726 69.59 18.5726C69.66 18.2526 69.83 17.9626 70.1 17.6926C70.53 17.2426 71.02 16.7226 71.59 16.1326C72.18 15.5426 72.76 14.9526 73.35 14.3426C73.96 13.7126 74.55 13.1026 75.11 12.5126C75.67 11.9226 76.15 11.3926 76.53 10.9226C76.51 10.3326 76.47 9.70264 76.43 9.02264C76.41 8.32264 76.37 7.63264 76.33 6.96264C76.31 6.26264 76.28 5.60264 76.26 4.96264C76.24 4.31264 76.21 3.71264 76.19 3.17264C76.17 2.65264 76.28 2.26264 76.53 1.99264C76.8 1.70264 77.3 1.53264 78.02 1.48264C78.83 1.43264 79.36 1.53264 79.61 1.75264C79.88 1.98264 80.03 2.38264 80.05 2.97264C80.05 3.42264 80.06 3.96264 80.08 4.59264C80.1 5.22264 80.13 5.89264 80.15 6.59264C80.18 7.27264 80.19 7.97264 80.19 8.69264ZM147 14.0426C147.02 14.6026 147.03 15.0426 147.03 15.3626C148.32 16.4226 149.51 17.3626 150.62 18.1726C151.73 18.9626 152.79 19.7726 153.8 20.6126C154.12 20.8826 154.31 21.1726 154.38 21.4926C154.47 21.8126 154.38 22.1626 154.11 22.5426C153.84 22.9726 153.56 23.2726 153.26 23.4526C152.99 23.6126 152.66 23.5626 152.28 23.3126C151.81 22.9926 151.28 22.6326 150.69 22.2326C150.13 21.8226 149.55 21.4026 148.96 20.9426C148.37 20.4926 147.78 20.0426 147.17 19.5926C146.58 19.1226 146.03 18.6726 145.51 18.2426C144.18 19.6426 142.93 20.9026 141.75 22.0326C140.58 23.1426 139.57 24.0426 138.74 24.7426C138.4 25.0326 138.03 25.1326 137.62 25.0426C137.21 24.9526 136.86 24.7226 136.57 24.3626C136.3 24.0226 136.2 23.7226 136.27 23.4526C136.34 23.1826 136.5 22.9026 136.74 22.6026C137.17 22.1326 137.69 21.6026 138.3 21.0126C138.91 20.4026 139.53 19.7826 140.16 19.1526C140.81 18.5226 141.43 17.9126 142.02 17.3226C142.61 16.7126 143.09 16.1726 143.48 15.7026C143.48 15.3626 143.47 14.9126 143.45 14.3526C143.43 13.7926 143.4 13.1426 143.38 12.4226C143.38 11.7026 143.37 10.9326 143.35 10.1226C143.33 9.31264 143.3 8.50264 143.28 7.68264C141.93 7.75264 140.66 7.80264 139.49 7.85264C138.32 7.90264 137.4 7.93264 136.75 7.95264C136.34 7.97264 136.02 7.87264 135.77 7.65264C135.54 7.40264 135.42 7.02264 135.4 6.50264C135.38 5.96264 135.47 5.56264 135.67 5.32264C135.9 5.05264 136.18 4.90264 136.52 4.88264C137.24 4.86264 138.2 4.82264 139.4 4.78264C140.6 4.71264 141.87 4.66264 143.22 4.61264C143.2 3.98264 143.17 3.41264 143.15 2.92264C143.15 2.42264 143.15 2.02264 143.15 1.70264C143.13 1.18264 143.23 0.792642 143.45 0.522642C143.7 0.232643 144.18 0.0626425 144.91 0.0126425C145.72 -0.0373575 146.24 0.0626425 146.47 0.282642C146.72 0.512643 146.85 0.912643 146.88 1.50264C146.9 1.82264 146.91 2.23264 146.91 2.75264C146.91 3.25264 146.92 3.81264 146.94 4.44264C148.25 4.39264 149.47 4.35264 150.59 4.30264C151.74 4.25264 152.67 4.22264 153.36 4.20264C153.81 4.18264 154.14 4.28264 154.34 4.50264C154.57 4.70264 154.69 5.08264 154.71 5.62264C154.73 6.61264 154.29 7.14264 153.39 7.21264C152.74 7.26264 151.83 7.31264 150.68 7.38264C149.55 7.43264 148.31 7.48264 146.96 7.55264C146.96 8.34264 146.96 9.14264 146.96 9.95264C146.98 10.7426 146.99 11.4826 146.99 12.1826C147 12.8526 147 13.4726 147 14.0426ZM156.03 11.5026C156.59 11.4826 157.15 11.4526 157.69 11.4326C157.74 10.1426 157.77 8.87264 157.79 7.61264C157.84 6.35264 157.88 5.07264 157.93 3.79264C157.95 3.18264 158.1 2.75264 158.37 2.50264C158.66 2.23264 159.15 2.09264 159.83 2.09264C161 2.09264 161.59 2.69264 161.59 3.88264C161.57 5.73264 161.53 7.64264 161.49 9.60264C161.44 11.5626 161.39 13.5326 161.32 15.4926C161.25 17.4326 161.16 19.3526 161.05 21.2426C160.96 23.1426 160.85 24.9426 160.71 26.6526C160.66 27.3026 160.48 27.7626 160.17 28.0026C159.85 28.2526 159.46 28.3526 158.99 28.3026C158.49 28.2526 158.12 28.0726 157.87 27.7626C157.64 27.4426 157.53 26.9326 157.53 26.2026C157.53 22.3026 157.56 18.3926 157.63 14.4926C157.09 14.5126 156.55 14.5426 156.01 14.5626C155.49 14.5626 154.99 14.5726 154.52 14.5926C154.07 14.5926 153.69 14.6026 153.37 14.6226C153.05 14.6226 152.85 14.6226 152.76 14.6226C152.29 14.6226 151.96 14.5026 151.78 14.2526C151.62 13.9826 151.53 13.6026 151.51 13.1026C151.49 12.1126 151.87 11.6026 152.66 11.5826C152.77 11.5826 153 11.5826 153.34 11.5826C153.68 11.5626 154.07 11.5326 154.52 11.5126C154.98 11.5126 155.49 11.5026 156.03 11.5026ZM190.82 24.9726C190.77 25.6226 190.59 26.0826 190.28 26.3226C189.96 26.5726 189.57 26.6726 189.1 26.6226C188.6 26.5726 188.23 26.3926 187.98 26.0826C187.75 25.7626 187.64 25.2526 187.64 24.5226C187.64 22.6526 187.64 20.9126 187.64 19.3126C187.66 17.6926 187.69 16.1026 187.71 14.5426C187.76 12.9826 187.8 11.4026 187.85 9.80264C187.92 8.20264 187.99 6.47264 188.05 4.62264C188.07 4.01264 188.22 3.58264 188.49 3.33264C188.78 3.06264 189.27 2.92264 189.95 2.92264C191.12 2.92264 191.71 3.52264 191.71 4.71264C191.69 6.56264 191.65 8.33264 191.61 10.0226C191.56 11.7126 191.51 13.3826 191.44 15.0326C191.37 16.6826 191.28 18.3126 191.17 19.9426C191.07 21.5826 190.95 23.2526 190.82 24.9726ZM185.67 24.8026C185.44 25.0326 185.14 25.1626 184.76 25.2126C182.03 25.5326 179.22 25.7926 176.33 25.9926C173.46 26.1926 170.53 26.3826 167.53 26.5726C166.67 26.5726 166.24 26.0526 166.24 25.0126C166.24 24.5126 166.34 24.1526 166.54 23.9326C166.74 23.6826 167.08 23.5426 167.56 23.4926C169.32 23.3526 170.92 23.2326 172.37 23.1226C173.81 23.0126 175.2 22.9126 176.53 22.8226C177.86 22.7326 179.19 22.6526 180.52 22.5826C181.85 22.4926 183.28 22.4026 184.82 22.3126C185.25 22.2926 185.55 22.4126 185.73 22.6826C185.91 22.9326 186 23.2626 186 23.6626C186.01 24.1626 185.9 24.5526 185.67 24.8026ZM184.08 14.5826C183.61 15.6026 182.95 16.4526 182.12 17.1526C181.31 17.8326 180.34 18.3626 179.21 18.7426C178.1 19.1026 176.92 19.3026 175.66 19.3526C174.33 19.4026 173.1 19.2626 171.97 18.9426C170.86 18.6026 169.91 18.0926 169.09 17.4226C168.3 16.7226 167.68 15.8526 167.23 14.8126C166.78 13.7726 166.55 12.5526 166.55 11.1626C166.55 10.0126 166.76 8.93264 167.19 7.91264C167.62 6.89264 168.23 6.00264 169.02 5.24264C169.83 4.47264 170.79 3.86264 171.9 3.41264C173.03 2.96264 174.28 2.71264 175.66 2.67264C177.01 2.62264 178.24 2.79264 179.35 3.18264C180.48 3.56264 181.44 4.13264 182.23 4.87264C183.04 5.61264 183.67 6.52264 184.13 7.58264C184.58 8.62264 184.81 9.79264 184.81 11.1026C184.81 12.4126 184.56 13.5626 184.08 14.5826ZM179.58 14.7826C180.1 14.3126 180.5 13.7526 180.8 13.1226C181.09 12.4726 181.24 11.7426 181.24 10.9526C181.24 10.0926 181.08 9.34264 180.77 8.68264C180.48 8.00264 180.07 7.44264 179.55 6.99264C179.05 6.54264 178.47 6.20264 177.79 5.97264C177.11 5.74264 176.4 5.64264 175.66 5.67264C174.85 5.69264 174.1 5.85264 173.43 6.14264C172.75 6.41264 172.17 6.79264 171.67 7.29264C171.17 7.76264 170.79 8.33264 170.52 8.98264C170.25 9.63264 170.11 10.3426 170.11 11.1126C170.11 11.9926 170.25 12.7626 170.52 13.4126C170.79 14.0426 171.17 14.5826 171.67 15.0326C172.17 15.4626 172.74 15.7726 173.4 15.9826C174.05 16.1826 174.78 16.2826 175.57 16.2826C176.36 16.2826 177.1 16.1426 177.8 15.8726C178.49 15.6326 179.09 15.2526 179.58 14.7826Z" fill="#595550"/>
<path d="M224.68 7.4723C224.63 7.9923 224.58 8.5823 224.51 9.2323C224.87 9.2323 225.22 9.2323 225.56 9.2323C225.9 9.2323 226.23 9.2223 226.54 9.2023C227.06 9.1823 227.45 9.2723 227.72 9.4723C227.99 9.6523 228.15 10.0623 228.19 10.6923C228.24 11.4823 228.11 11.9923 227.82 12.2123C227.55 12.4123 227.15 12.5423 226.64 12.5823C226.17 12.6023 225.47 12.6423 224.54 12.6823C223.61 12.7223 222.54 12.7723 221.33 12.8223C220.13 12.8423 218.85 12.8823 217.47 12.9223C216.12 12.9723 214.77 13.0123 213.44 13.0623C212.13 13.1123 210.89 13.1423 209.72 13.1623C208.55 13.1823 207.54 13.2123 206.71 13.2323C206.46 13.2323 206.24 13.2323 206.03 13.2323C205.85 13.2323 205.68 13.1823 205.52 13.0923C205.38 12.9823 205.27 12.8223 205.18 12.6223C205.11 12.3923 205.07 12.0723 205.04 11.6423C205.02 10.8723 205.12 10.3723 205.34 10.1223C205.57 9.8723 205.96 9.7323 206.52 9.6823C207.29 9.6623 208.2 9.6223 209.26 9.5823C209.19 8.9923 209.12 8.4123 209.06 7.8223C209.01 7.2123 208.98 6.6423 208.96 6.0923C208.37 6.0923 207.82 6.0923 207.3 6.0923C206.78 6.0723 206.33 6.0423 205.95 6.0223C205.45 6.0023 205.06 5.8423 204.77 5.5523C204.48 5.2323 204.34 4.6523 204.36 3.7923C204.36 2.2323 204.9 1.4423 205.98 1.4223C206.77 1.4023 207.72 1.3923 208.82 1.3923C209.95 1.3723 211.16 1.3623 212.44 1.3623C213.75 1.3623 215.09 1.3623 216.47 1.3623C217.87 1.3623 219.23 1.3623 220.56 1.3623C221.89 1.3623 223.14 1.3723 224.32 1.3923C225.52 1.3923 226.56 1.3923 227.47 1.3923C228.49 1.3923 228.99 2.0923 228.99 3.4923C229.01 4.3223 228.87 4.8923 228.55 5.1823C228.26 5.4723 227.85 5.6423 227.33 5.6923C227.06 5.7123 226.71 5.7423 226.28 5.7623C225.85 5.7823 225.34 5.8123 224.76 5.8323C224.76 6.3823 224.72 6.9323 224.68 7.4723ZM212.97 28.3223C215.2 28.3223 217.41 28.3123 219.6 28.2923C221.79 28.2723 223.99 28.2623 226.2 28.2623C226.65 28.2623 226.94 28.3723 227.08 28.6023C227.22 28.8323 227.28 29.1823 227.28 29.6523C227.28 29.7923 227.27 29.9523 227.25 30.1623C227.25 30.3923 227.2 30.6123 227.11 30.8423C227.04 31.0723 226.93 31.2623 226.77 31.4223C226.63 31.5823 226.43 31.6623 226.16 31.6623C223.45 31.7123 220.77 31.7423 218.11 31.7623C215.45 31.8123 212.79 31.8523 210.12 31.9023C209.15 31.9023 208.46 31.7023 208.06 31.2923C207.68 30.9123 207.46 30.3723 207.42 29.6723C207.37 28.9723 207.33 28.2723 207.28 27.5723C207.23 26.8923 207.21 26.2123 207.21 25.5123C207.21 25.2223 207.26 25.0023 207.35 24.8723C207.44 24.7323 207.61 24.6623 207.86 24.6323C210.16 24.5423 212.45 24.4523 214.73 24.3623C217.01 24.2723 219.31 24.1723 221.63 24.0623C221.63 23.8623 221.63 23.6823 221.63 23.5223C221.65 23.3423 221.66 23.1423 221.66 22.9123C219.31 22.9623 216.98 23.0123 214.65 23.0823C212.33 23.1323 209.99 23.1723 207.64 23.2223C207.26 23.2223 206.99 23.0823 206.83 22.8123C206.67 22.5223 206.59 22.0823 206.59 21.4923C206.59 21.1323 206.64 20.7723 206.73 20.4123C206.84 20.0523 207.14 19.8623 207.61 19.8323C209.21 19.7823 210.78 19.7423 212.31 19.6923C213.84 19.6223 215.37 19.5723 216.88 19.5223C218.39 19.4523 219.91 19.4023 221.45 19.3523C222.98 19.2823 224.55 19.2323 226.15 19.1823C226.69 19.1823 226.96 19.5323 226.96 20.2323C226.94 21.0923 226.9 21.9423 226.86 22.8023C226.84 23.6323 226.79 24.4823 226.72 25.3423C226.65 26.3823 226.13 26.9123 225.16 26.9323L212.94 27.3723V28.3223H212.97ZM229.25 16.9523C229.09 17.3123 228.8 17.5023 228.37 17.5323C226.75 17.6423 224.94 17.7423 222.96 17.8323C221 17.9023 218.99 17.9723 216.94 18.0323C214.89 18.1023 212.86 18.1723 210.85 18.2323C208.86 18.2823 207.04 18.3123 205.37 18.3323C205.12 18.3323 204.92 18.2723 204.76 18.1623C204.62 18.0223 204.52 17.8723 204.46 17.6923C204.39 17.5123 204.35 17.3123 204.32 17.0823C204.3 16.8523 204.29 16.6423 204.29 16.4423C204.29 15.9923 204.35 15.5823 204.46 15.2223C204.57 14.8623 204.89 14.6723 205.41 14.6423C207.19 14.5723 209.08 14.5023 211.06 14.4423C213.07 14.3723 215.08 14.3223 217.08 14.2723C219.09 14.2023 221.05 14.1623 222.97 14.1323C224.91 14.0823 226.7 14.0623 228.35 14.0623C228.85 14.0623 229.16 14.2223 229.3 14.5323C229.44 14.8523 229.5 15.2323 229.5 15.6823C229.48 16.1423 229.4 16.5623 229.25 16.9523ZM216.86 9.4023C217.81 9.3823 218.76 9.3523 219.7 9.3323C219.7 8.7223 219.7 8.1623 219.7 7.6423C219.7 7.1023 219.71 6.5323 219.73 5.9523C218.81 5.9723 217.86 6.0023 216.89 6.0223C215.94 6.0423 214.99 6.0523 214.05 6.0523C214.07 6.6823 214.07 7.2623 214.05 7.7823C214.05 8.2823 214.05 8.8323 214.05 9.4423C215 9.4123 215.94 9.4023 216.86 9.4023ZM252.25 15.3923C252.23 17.0823 252.18 18.8023 252.11 20.5323C252.06 22.2423 251.99 24.0623 251.87 25.9823C251.82 26.6623 251.57 27.1923 251.09 27.5723C250.64 27.9523 250.04 28.1223 249.3 28.0823C248.6 28.0323 248.1 27.8223 247.81 27.4423C247.52 27.0623 247.36 26.4923 247.34 25.7523C247.23 22.1223 247.15 18.4923 247.1 14.8523C247.05 11.2023 247.07 7.5123 247.13 3.7823C247.13 3.1723 247.3 2.6923 247.64 2.3223C247.98 1.9523 248.64 1.7723 249.64 1.7423C250.63 1.7223 251.32 1.8823 251.7 2.2123C252.08 2.5523 252.28 3.0023 252.28 3.5623V10.5723C252.66 10.5523 253.01 10.5523 253.33 10.5723C253.67 10.5723 254 10.5723 254.31 10.5723C254.36 9.4923 254.38 8.3723 254.38 7.2223C254.4 6.0723 254.44 4.8623 254.48 3.6023C254.48 3.0123 254.65 2.5523 254.99 2.2123C255.33 1.8523 255.98 1.6723 256.95 1.6723C258.01 1.6723 258.73 1.8623 259.12 2.2523C259.5 2.6323 259.68 3.0823 259.66 3.6023C259.66 5.6123 259.65 7.5623 259.63 9.4523C259.61 11.3223 259.56 13.1823 259.49 15.0323C259.42 16.8823 259.32 18.7523 259.19 20.6523C259.08 22.5523 258.92 24.5223 258.72 26.5723C258.67 27.2223 258.43 27.7423 257.98 28.1323C257.55 28.5123 256.96 28.6823 256.22 28.6423C255.54 28.5923 255.06 28.3823 254.76 28.0023C254.47 27.6423 254.31 27.0923 254.29 26.3423C254.24 24.2623 254.22 22.3523 254.22 20.5923C254.22 18.8123 254.23 17.0723 254.25 15.3823H252.25V15.3923ZM238.47 12.1423C239.15 12.0523 239.78 11.9723 240.37 11.9023C240.35 11.2223 240.32 10.5023 240.3 9.7323C240.28 8.9623 240.24 8.2423 240.2 7.5623C239.12 7.5823 238.01 7.6123 236.88 7.6323C235.75 7.6523 234.67 7.6423 233.63 7.6023C233.31 7.6023 233.04 7.5723 232.82 7.5023C232.59 7.4323 232.4 7.3223 232.24 7.1623C232.1 6.9823 232 6.7423 231.94 6.4523C231.87 6.1623 231.84 5.7623 231.84 5.2723C231.86 4.2323 231.99 3.5723 232.21 3.2723C232.46 2.9523 232.86 2.7823 233.43 2.7623C234.24 2.7423 235.14 2.7023 236.14 2.6623C237.13 2.6123 238.13 2.5823 239.12 2.5623C240.11 2.5423 241.08 2.5323 242.03 2.5323C242.98 2.5123 243.81 2.5023 244.53 2.5023C245.05 2.5023 245.31 2.7823 245.31 3.3523C245.36 5.1123 245.39 6.9123 245.41 8.7623C245.43 10.6123 245.43 12.4123 245.41 14.1723C245.41 14.7323 245.29 15.1523 245.04 15.4223C244.81 15.6923 244.42 15.8623 243.86 15.9323C243.41 16.0023 242.89 16.0723 242.3 16.1323C241.71 16.1823 241.1 16.2323 240.47 16.3023C239.86 16.3723 239.26 16.4423 238.68 16.5023C238.12 16.5523 237.63 16.5823 237.22 16.6023C237.22 17.0323 237.21 17.5723 237.19 18.2223C237.19 18.8723 237.19 19.4323 237.19 19.8823C237.19 20.1723 237.25 20.3823 237.36 20.4923C237.5 20.6023 237.72 20.6523 238.04 20.6323C238.69 20.6123 239.28 20.5823 239.8 20.5623C240.34 20.5123 240.85 20.4823 241.32 20.4623C241.82 20.4423 242.3 20.4123 242.78 20.3923C243.28 20.3723 243.8 20.3423 244.34 20.3223C244.86 20.3023 245.23 20.4023 245.46 20.6223C245.71 20.8523 245.85 21.2923 245.9 21.9423C245.95 22.7523 245.84 23.3523 245.6 23.7323C245.35 24.0923 245.04 24.2923 244.65 24.3423C243.05 24.5923 241.54 24.7823 240.12 24.9223C238.72 25.0623 237.16 25.1323 235.45 25.1623C234.68 25.1823 234.09 25.0623 233.66 24.7923C233.25 24.5223 232.97 24.1123 232.81 23.5723C232.7 23.1623 232.58 22.6023 232.47 21.8823C232.38 21.1623 232.29 20.3723 232.2 19.5123C232.11 18.6323 232.03 17.7323 231.96 16.8023C231.91 15.8523 231.88 14.9623 231.86 14.1323C231.86 13.4323 232.21 13.0123 232.91 12.8823C233.41 12.7923 233.96 12.7123 234.57 12.6423C235.2 12.5523 235.84 12.4623 236.5 12.3723C237.15 12.2923 237.82 12.2123 238.47 12.1423ZM280.35 9.2323C281.09 9.2123 281.76 9.2023 282.35 9.2023C282.37 8.3423 282.38 7.4723 282.38 6.5923C282.4 5.7123 282.44 4.8023 282.48 3.8523C282.5 2.9523 282.85 2.3523 283.53 2.0623C284.07 1.8123 284.69 1.7023 285.39 1.7223C286.09 1.7223 286.7 1.8423 287.22 2.0923C287.58 2.2723 287.82 2.5023 287.93 2.7723C288.07 3.0223 288.13 3.3723 288.13 3.8223C288.18 7.5923 288.12 11.4023 287.96 15.2623C287.8 19.1023 287.53 22.9023 287.15 26.6623C287.1 27.1623 286.92 27.5523 286.61 27.8423C286.32 28.1623 285.98 28.3823 285.59 28.5223C285.34 28.6123 284.99 28.6423 284.54 28.6223C284.09 28.6023 283.71 28.5323 283.39 28.4223C283.1 28.3123 282.84 28.1223 282.61 27.8423C282.41 27.5923 282.31 27.2423 282.31 26.7923C282.29 24.5623 282.28 22.4023 282.28 20.3323C282.28 18.2623 282.29 16.1623 282.31 14.0423C281.7 14.0623 281.04 14.0923 280.31 14.1123C279.59 14.1123 278.9 14.1223 278.25 14.1423C277.6 14.1623 277.02 14.1723 276.52 14.1723C276.02 14.1723 275.69 14.1623 275.5 14.1423C274.85 14.0923 274.38 13.8923 274.11 13.5323C273.86 13.1723 273.72 12.6423 273.67 11.9423C273.62 11.1123 273.75 10.5223 274.04 10.1823C274.36 9.8423 274.78 9.6223 275.33 9.50231C275.51 9.4823 275.87 9.4523 276.41 9.4323C276.95 9.3823 277.56 9.3523 278.24 9.3323C278.93 9.2923 279.62 9.2523 280.35 9.2323ZM279.87 19.1123C280.19 19.3623 280.37 19.9223 280.41 20.8023C280.41 21.5223 280.26 22.0323 279.97 22.3223C279.7 22.5923 279.38 22.7523 279.02 22.7923C278.21 22.9323 277.29 23.0623 276.28 23.2023C275.26 23.3123 274.2 23.4323 273.1 23.5423C271.99 23.6323 270.88 23.7223 269.75 23.8123C268.62 23.8823 267.52 23.9223 266.43 23.9523C265.53 23.9523 264.83 23.7423 264.33 23.3123C263.86 22.8623 263.59 22.2723 263.52 21.5523C263.5 21.3523 263.45 20.8723 263.38 20.1323C263.33 19.3923 263.28 18.4923 263.21 17.4623C263.14 16.4223 263.06 15.3123 262.97 14.1123C262.88 12.8923 262.8 11.7323 262.73 10.6223C262.66 9.51231 262.61 8.5123 262.56 7.6123C262.51 6.7123 262.49 6.0423 262.49 5.6123C262.49 5.2523 262.51 4.9223 262.56 4.6323C262.63 4.3423 262.76 4.0923 262.97 3.8923C263.2 3.6923 263.51 3.5323 263.92 3.4223C264.33 3.2823 264.88 3.1823 265.58 3.1223C266.53 3.0323 267.26 3.1723 267.78 3.5323C268.32 3.8923 268.6 4.3923 268.63 5.0223C268.72 7.3223 268.79 9.6023 268.83 11.8623C268.9 14.1223 268.97 16.3823 269.03 18.6623C269.03 19.0423 269.19 19.2423 269.5 19.2423C270.18 19.1923 270.9 19.1623 271.67 19.1423C272.46 19.0923 273.26 19.0623 274.07 19.0423C274.88 18.9923 275.68 18.9523 276.47 18.9023C277.28 18.8523 278.06 18.8123 278.8 18.7623C279.23 18.7423 279.58 18.8623 279.87 19.1123Z" fill="#67986C"/>
</svg>
