<svg width="12" height="8" viewBox="0 0 12 8" fill="none" xmlns="http://www.w3.org/2000/svg">
<path d="M0.584817 0.657852C0.523465 0.712376 0.473453 0.77845 0.437637 0.852304C0.401822 0.926157 0.380905 1.00634 0.37608 1.08828C0.371256 1.17022 0.382619 1.2523 0.40952 1.32985C0.436421 1.40739 0.478334 1.47888 0.532864 1.54023L5.53286 7.16523C5.59151 7.2312 5.66345 7.28399 5.74397 7.32015C5.82449 7.35631 5.91175 7.375 6.00001 7.375C6.08828 7.375 6.17554 7.35631 6.25606 7.32015C6.33657 7.28399 6.40852 7.2312 6.46716 7.16523L11.4672 1.54023C11.5773 1.41633 11.6337 1.25376 11.6239 1.08829C11.6142 0.922809 11.5391 0.767976 11.4152 0.657851C11.2913 0.547725 11.1288 0.491327 10.9633 0.501063C10.7978 0.5108 10.643 0.585874 10.5329 0.709769L6.00001 5.80926L1.46716 0.70977C1.35703 0.585883 1.20221 0.510814 1.03674 0.501078C0.871269 0.491341 0.708709 0.547734 0.584817 0.657852Z" fill="#595550"/>
</svg>
